<?xml version="1.0" encoding="UTF-8"?>
<svg id="Layer_1" data-name="Layer 1" xmlns="http://www.w3.org/2000/svg" viewBox="0 0 1000 1000">
  <g>
    <g>
      <g>
        <path d="m739.38,164.24h.02s0-.02,0-.03l-.02.03Z"/>
        <path d="m787.41,571.78c-1.86-8.62-5.37-15.48-4.02-21.2,1.4-6,7.45-10.89,11.47-16.27-.65-.9-1.29-1.78-1.93-2.68-3.99,1.09-7.99,2.13-11.96,3.27-4.23,1.2-8.44,3.44-12.68,3.47-4.42.05-8.86-1.99-13.3-3.12,2.56-3.09,5.58-5.9,7.56-9.32,1.99-3.45,4.85-8.07,3.92-11.15-1.44-4.84-5.27-9.42-9.24-12.73-.91-.76-6.55,4.08-9.94,6.45-1.42,1.01-2.65,2.3-3.6,3.14-5.3-4.32-10.81-7.55-14.43-12.23-2.18-2.84-2.24-8.05-1.75-12,.54-4.4,2.79-8.58,4.89-14.56,2.25-.33,5-.05,7.8.13,3.61.23,7.29.3,10.05-1.34,1.86-1.1,3.31-2.97,4.03-6.07-.77-1.87-1.51-3.7-2.25-5.51-4.05-9.93-7.72-18.87-11.34-27.72h0c-.37-.94-.75-1.85-1.13-2.78-1.27-1.39-2.56-2.79-3.84-4.18-3.09,7.76-4.82,16.54-9.67,22.98-4.15,5.52-11.86,8.36-18.01,12.38.31,1.4,1.09,2.91.82,4.18-.46,2.16-1.33,4.37-2.59,6.15-.39.56-3.55.21-3.83-.42-.89-2.08-1.74-4.63-1.28-6.7.51-2.26,2.49-4.19,3.82-6.27,3.84-7.91,7.7-15.8,11.54-23.71.14-1.44.29-2.9.43-4.34-1.42-.23-2.84-.46-4.26-.69-1.5-.1-3.01-.2-4.51-.31-6.93,2.4-13.86,4.8-20.79,7.19-.87-.98-1.73-1.96-2.59-2.95,15.82-4.67,17.3-18.17,21.38-30.07-.84-.66-1.68-1.3-2.53-1.95-5.27,2.38-10.55,4.76-16.64,7.51-3.64-19.49,9.63-30.25,21.19-45.53-.79,7.1-1.35,11.35-1.7,15.62-.38,4.61-.54,9.24-.8,13.86.59-.58,1.19-1.16,1.78-1.73,3.1-4.37,6.18-8.73,9.28-13.11.02-1.2.04-2.4.06-3.6.68-1.62,1.34-3.25,2.02-4.87.89-2.86,1.77-5.72,2.66-8.56,1.43-2.64,2.88-5.27,4.32-7.9.2-3.32.41-6.63.62-9.94.94-5.4,1.87-10.81,2.8-16.2.34-2.04.69-4.07,1.03-6.09.72-3.02,1.42-6.03,2.14-9.05,1.42-5.91,2.85-11.81,4.28-17.72.8-4.46,1.6-8.93,2.4-13.39l.48-6.71c.54-3.07,1.08-6.13,1.61-9.19,1.85-13.31,3.71-26.62,5.58-39.92.33-3.84.66-7.69.98-11.53.41-4.33.81-8.65,1.21-12.98-1.76-12.54-3.52-25.08-5.28-37.6-1.42.68-2.85,1.36-4.26,2.05-.86,5.17-1.7,10.35-2.56,15.52-1.32,6.06-1.91,12.41-4.12,18.12-4.66,12.04-10.18,23.74-15.34,35.58-1.17,2.3-2.35,4.59-3.51,6.89-1.12,5.13-2.24,10.26-3.36,15.4-1.74,5.2-3.48,10.41-5.21,15.62-3.12,3.68-6.24,7.36-9.37,11.04-.27,1.05-.53,2.09-.82,3.15-.26,1.16-.51,2.31-.76,3.46-2.88,17.81-11.44,32.64-23.5,45.78-4.2,4.57-7.78,9.71-11.63,14.6-3.41,5.91-6.81,11.82-10.23,17.74l-3.05-1.53c2.89-5.44,5.77-10.88,8.64-16.32-3.26-9.56-5.73-1.6-7.2.69-11.35,17.67-22.39,35.54-33.57,53.32-.98,1.55-2.31,2.88-3.47,4.3-.48,5.55-.67,11.13-1.51,16.62-1.66,10.71.4,13.11,11.38,11.21,7.3-1.26,14.4-3.66,21.69-5,3.67-.68,7.56-.12,11.35-.12.15,1,.31,1.99.46,2.99-21.35,6.83-42.7,13.66-63.88,20.45,1.1-13.12,1.44-24.17,3.18-34.99.9-5.62,4.25-10.84,6.49-16.24,3.9,1.47,6.77,2.56,9.64,3.63,1.36-9.75,2.65-19.51,4.12-29.24,1.17-7.66,2.56-15.28,4.37-26.03-5.2,4.5-8.32,7.21-11.44,9.92-8.87,8.69-17.74,17.39-26.61,26.08-.85-.59-1.68-1.17-2.54-1.75,2.69-5.32,5.79-10.49,7.93-16.02,1.61-4.13,1.99-8.73,2.93-13.13-4.39,2.57-10.08,4.14-12.93,7.89-5.78,7.59-12.13,14.22-19.33,19.89-3.98,1.73-7.59,3.79-10.43,7.09-2.84,1.65-5.77,3.23-8.87,4.62-3.9,1.74-6.27,6.93-9.68,11.43-.26-.75-.51-1.49-.76-2.23,1.95-4.6,3.89-9.2,6.14-13.63,3.35-6.57,7.33-12.83,10.99-19.24,3.85-6.72,7.68-13.47,11.51-20.22-1.55-2.1-3.1-4.2-4.65-6.31-8.14,14.44-17.89,27.07-31.55,37.05-2.09-6.18-4.22-12.49-6.49-19.22-4.02,8.09-5.7,13.1-8.7,17.11-.98,1.31-1.94,2.48-2.95,3.49-1-1.01-1.96-2.17-2.94-3.49-3.01-4.01-4.68-9.02-8.7-17.11-2.27,6.73-4.4,13.04-6.49,19.22-13.66-9.98-23.41-22.61-31.55-37.05-1.55,2.11-3.1,4.21-4.65,6.31,3.83,6.74,7.65,13.49,11.5,20.22,3.67,6.41,7.65,12.67,10.99,19.24,2.26,4.43,4.2,9.03,6.15,13.63-.25.74-.51,1.48-.76,2.23-3.41-4.5-5.78-9.69-9.68-11.43-3.11-1.39-6.03-2.97-8.87-4.62-2.84-3.3-6.44-5.36-10.43-7.09-7.2-5.67-13.55-12.3-19.33-19.89-2.85-3.74-8.53-5.32-12.93-7.89.94,4.39,1.31,8.99,2.92,13.13,2.15,5.54,5.25,10.71,7.93,16.02-.85.59-1.69,1.17-2.54,1.75-8.86-8.69-17.74-17.39-26.6-26.08-3.13-2.71-6.24-5.42-11.44-9.92,1.81,10.76,3.21,18.37,4.37,26.03,1.47,9.73,2.76,19.49,4.12,29.24,2.87-1.08,5.74-2.16,9.64-3.63,2.24,5.4,5.6,10.63,6.49,16.24,1.73,10.83,2.08,21.88,3.18,34.99-3.68-1.19-7.4-2.37-11.09-3.56l-5.79-7.25h-4.49c-3.47.22-6.94.42-10.41.64-10.69-3.43-21.4-6.85-32.11-10.28.15-1,.31-1.99.46-2.99,3.79,0,7.69-.56,11.35.12,7.29,1.33,14.39,3.73,21.69,5,10.98,1.89,13.05-.51,11.38-11.21-.85-5.49-1.04-11.07-1.51-16.62-1.17-1.42-2.5-2.75-3.48-4.3-11.18-17.78-22.22-35.65-33.57-53.32-1.47-2.29-3.94-10.25-7.2-.69,2.88,5.44,5.76,10.88,8.64,16.32-1.02.52-2.03,1.03-3.05,1.53-3.42-5.92-6.82-11.83-10.23-17.74-3.85-4.89-7.43-10.03-11.63-14.6-12.06-13.14-20.62-27.97-23.5-45.78-.25-1.15-.5-2.3-.76-3.46-.29-1.06-.55-2.1-.82-3.15-3.13-3.68-6.25-7.36-9.37-11.04-1.73-5.21-3.47-10.42-5.21-15.62-1.12-5.14-2.24-10.27-3.36-15.4-1.17-2.3-2.34-4.59-3.52-6.89-5.16-11.84-10.68-23.54-15.34-35.58-2.21-5.72-2.8-12.06-4.12-18.12-.86-5.17-1.7-10.35-2.56-15.52-1.42-.69-2.84-1.37-4.26-2.05-1.76,12.53-3.52,25.07-5.28,37.6.41,4.32.81,8.64,1.22,12.98.32,3.84.65,7.69.98,11.53,1.86,13.3,3.72,26.61,5.58,39.92.54,3.06,1.08,6.12,1.61,9.19l.48,6.71c.8,4.46,1.59,8.93,2.4,13.39,1.43,5.91,2.86,11.81,4.28,17.72.72,3.02,1.42,6.03,2.14,9.05.34,2.02.68,4.05,1.02,6.09.94,5.4,1.87,10.81,2.81,16.2.21,3.31.41,6.62.62,9.94,1.44,2.63,2.89,5.26,4.32,7.9.89,2.85,1.77,5.71,2.66,8.56.67,1.62,1.34,3.25,2.02,4.87.02,1.2.04,2.4.06,3.6,3.1,4.37,6.18,8.73,9.28,13.11.6.58,1.2,1.16,1.78,1.73-.26-4.62-.43-9.25-.8-13.86-.35-4.26-.92-8.51-1.7-15.62,11.56,15.28,24.83,26.04,21.19,45.53-6.09-2.75-11.37-5.13-16.65-7.51-.84.65-1.68,1.29-2.53,1.95,4.09,11.89,5.57,25.39,21.39,30.07-.87.99-1.72,1.97-2.59,2.95-6.93-2.39-13.86-4.79-20.79-7.19-1.5.11-3.01.21-4.51.31-1.42.23-2.84.46-4.26.69.14,1.44.28,2.9.43,4.34,3.84,7.91,7.7,15.8,11.54,23.71,1.32,2.08,3.32,4.01,3.81,6.27.47,2.07-.39,4.62-1.27,6.7-.28.63-3.45.98-3.83.42-1.26-1.78-2.13-3.99-2.59-6.15-.27-1.27.51-2.78.82-4.18-6.14-4.02-13.85-6.86-18-12.38-4.85-6.44-6.58-15.23-9.67-22.98-1.28,1.39-2.57,2.79-3.84,4.18-.32.79-.65,1.57-.97,2.36h0c-3.63,8.87-7.28,17.81-11.32,27.71v.02c-.8,1.94-1.6,3.89-2.43,5.92.76,3.25,2.3,5.14,4.28,6.21,2.8,1.53,6.46,1.42,10.05,1.19,2.71-.18,5.37-.43,7.55-.11,2.1,5.98,4.34,10.16,4.89,14.56.49,3.95.43,9.16-1.75,12-3.62,4.68-9.13,7.91-14.43,12.23-.95-.84-2.17-2.13-3.59-3.14-3.39-2.37-9.03-7.21-9.94-6.45-3.97,3.31-7.8,7.89-9.25,12.73-.93,3.09,1.94,7.71,3.93,11.15,1.97,3.43,5,6.23,7.56,9.32-4.43,1.13-8.87,3.17-13.29,3.12-4.23-.03-8.44-2.26-12.69-3.47-3.97-1.14-7.97-2.18-11.95-3.27-.65.9-1.28,1.78-1.93,2.68,4.01,5.38,10.07,10.28,11.47,16.27,1.34,5.73-2.16,12.58-4.02,21.2,9.01-1.43,18.25-2.9,27.5-4.36.58.88,1.15,1.75,1.72,2.62-10.85,6.68-18.23,14.72-13.4,28.05.44,1.22-1.72,3.2-2.22,4.95-1.28,4.58-2.32,9.24-3.46,13.86,1.41-.35,2.84-.71,4.25-1.06,10.34-4.07,20.67-8.15,30.75-12.12,2.84,11.65,5.57,22.87,8.97,36.82,9.69-7.46,17.7-13.62,27.79-21.39-3.09,8.18-5.49,13.56-7.1,19.19-.83,2.92-.24,6.23-.29,9.37,3.52,0,7.63,1.18,10.44-.25,7.9-3.99,15.58-8.61,22.76-13.79,16.89-12.16,31.96-4.29,46.48,4.25,12.89,7.59,10.37,20.86,9.62,33.02-.13,2.17-1.72,4.37-1.51,6.44.74,7.31,2.2,14.55,2.91,21.87.32,3.39-.49,6.88-.77,10.33-.29,3.54-.55,7.08-.82,10.63,3.25-1.83,6.76-3.32,9.66-5.59,3.9-3.07,7.32-6.74,10.35-9.58,4.33,7.03,7.37,11.95,10.41,16.88-.38-16.05-.75-32.12-1.13-48.18,0,0,.17-.23.17-.24-.4-4-2.34-8.7-.91-11.88,4.07-9.03,9.01-17.69,13.91-26.33.11,1.21.21,2.44.31,3.65,8.01-8.17,16-16.34,24.01-24.51-.5-.59-.99-1.19-1.48-1.77-.91.38-1.8.77-2.71,1.16l-1.11-1.17c-1.66.96-3.34,1.92-5.31,3.07,7.63-12.93,16.28-24.3,25.03-35.59,3.76-4.87,7.7-9.61,11.55-14.41l-6.18,2.66c.71-2.15,1.22-4.45,1.64-6.8,1.5-.21,3.02-.42,4.53-.64,1.26-1.43,2.53-2.88,3.8-4.31,1.08,3.61,3.4,7.4,2.93,10.81-.6,4.3-3.46,8.3-5.83,13.51h17.06l4.34.42c-.16,1.18-.32,2.34-.47,3.53-16.8-2.34-20.44.27-23.2,16.49-.18,1.06-.8,2.04-1.2,3.07,2.04,1.14,4.08,2.25,6.11,3.37,10.14-11.19,23.65-9.11,36.6-9.31,2.95.29,5.9.58,8.84.87,2.54,1.93,5.09,3.86,5.49,4.16-15.56,1.3-32.72,2.73-49.89,4.16-.37,4.79.68,10.42-1.5,14.14-2.17,3.7-7.32,6.32-11.7,7.8-2.2.74-5.62-2.13-8.47-3.37,2.07-4.04,3.82-8.3,6.3-12.07,2.33-3.56,5.43-6.6,8.2-9.88-17.38,2.77-23.62,17.21-31.42,30.02l.21.1c-12.21,11.24-22.77,23.56-26.35,40.43,2.02,1.71,4.05,3.43,6.07,5.14.44,4.22.89,8.44,1.32,12.67,4.62,8.61,3.02,21.79,17.16,23.42,9.76,1.68,14.21-2.44,14.06-12.33-.04-2.77,1.36-5.56,2.11-8.34,1.31-.21,2.62-.42,3.93-.63,6.36,5.28,12.73,10.57,19.1,15.84,4.34-1.47,8.69-2.96,14.42-4.91.03.26.05.51.07.76.01,0,.02,0,.03-.02,2.23-1.21,4.72-1.9,7.27-1.7,1.35.1,2.64.37,3.92.67v-.09c8.25,0,17.4.24,26.52-.16,2.47-.11,5.45-1.61,7.18-3.44,10.6-11.17,14.86-11.61,24.81-.27,4.06,4.63,6.63,10.57,10.04,16.34.12.21.24.43.37.64,3.3-.93,5.95-2.36,8.1-4.18,0,0,0,0,.01,0,7.5-6.3,9.02-17.2,11.91-27.38,1.31-4.65,4.5-8.77,6.84-13.15,0,0,0,0,0,0h0c-.32,13.73-.64,27.46-.97,41.18-.05,2.33-.1,4.67-.16,7,1.29-2.09,2.58-4.18,3.95-6.42,1.89-3.06,3.95-6.4,6.45-10.46,3.02,2.84,6.44,6.51,10.35,9.58,2.9,2.27,6.41,3.75,9.65,5.59-.27-3.55-.52-7.09-.81-10.63-.28-3.45-1.09-6.94-.77-10.33.71-7.32,2.17-14.56,2.91-21.87.21-2.07-1.38-4.27-1.51-6.44-.75-12.16-3.28-25.43,9.62-33.02,14.51-8.54,29.59-16.41,46.48-4.25,7.18,5.18,14.86,9.8,22.76,13.79,2.81,1.42,6.92.25,10.44.25-.05-3.14.54-6.45-.3-9.37-1.6-5.63-4-11.01-7.09-19.19,10.09,7.77,18.1,13.93,27.79,21.39,3.4-13.94,6.13-25.17,8.97-36.82,10.08,3.97,20.42,8.05,30.75,12.12,1.41.35,2.83.71,4.25,1.06-1.13-4.62-2.17-9.28-3.46-13.86-.5-1.75-2.66-3.73-2.22-4.95,4.83-13.33-2.56-21.37-13.4-28.05.58-.87,1.14-1.74,1.71-2.62,9.24,1.46,18.49,2.93,27.51,4.36Zm-487.06-57.76c-.01-.18-.01-.34-.02-.52h.71c-.23.18-.45.34-.69.52Zm127.59,71.61c-.3-.97-.6-1.94-.9-2.91-2.49,2.99-7.01,5.91-7.11,8.96-.14,4.1-1.17,7.27-2.94,9.78-1.07,1.3-2.25,2.41-3.61,3.17-2.23,1.24-4.49,2.65-6.82,3.96-.14.05-.27.1-.41.15.03.02.05.03.07.04-6.71,3.76-13.95,6.74-22.53,3.09-.89-.38-2.79,1.64-4.22,2.55.81.33,1.62.66,2.43.98-.09.25-.18.5-.28.75-.92-.32-1.82-.64-2.74-.96-8.89-6.55-17.63-13.33-26.8-19.47-1.72-1.16-5.16.23-7.8.45-.53.53-1.05,1.06-1.56,1.59-15.55-14.83-16.61-36.93-2.47-52.29,2.75-2.97,5.53-5.96,8.6-8.56,4.96-4.22,5.07-8.53.97-13.28l.05-.97.98-.04c7.98,1.17,15.93,2.48,23.93,3.47,14.61,1.8,31.42-1.22,37.85,17.92.45,1.31,2.33,2.22,2.61,3.53,1.29,6.04,2.24,12.17,3.35,18.26.28,1.54.58,3.08.87,4.62-.4,1.48-.12,2.68.66,3.52.5,2.64.99,5.28,1.47,7.92,5.15-3.03,10.3-6.05,15.45-9.08.51-.1,1.03-.21,1.54-.31.56.84,1.13,1.66,1.69,2.5-4.1,3.57-8.22,7.12-12.33,10.69Zm60.87,103.6c-12.25-3.27-15.42-17.55-25.5-23.42-2.36-1.84-4.72-3.69-7.09-5.54-.73-1.1-1.46-2.2-2.2-3.31.45-.07.71-.33.78-.8-1.24-1.64-2.68-3.22-4.07-4.81,1.4,1.59,2.84,3.17,4.08,4.8,2.36-5.32,4.71-10.65,7.07-15.97,4.14,3.39,8.28,6.77,12.42,10.16,4.24,4.02,9.21,7.53,12.54,12.21,2.97,4.18,6.51,9.94-1.42,13.67,1.97,3.62,3.95,7.24,5.93,10.85-.84.72-1.68,1.43-2.52,2.15Zm6.07-45.09c-2.53-.16-5.09-2.52-7.28-4.31-2.89-2.36-5.43-5.16-8.9-8.53,3.62-7.11,11.72-7.41,19.79-7.78-4.44-1.25-8.88-2.5-14.63-4.12,7.21-6.45,13.92-8.6,21.46-4.36.62.35-1.48,5.55-2.32,8.48,8.81.31,17.54,1.28,19.6,11.95.5,2.59-1.96,8.17-3.52,8.35-7.99.9-16.15.84-24.2.33Zm47.67,15.06c-5.17,8.01-11.52,15.35-18.12,22.29-2.67,2.81-7.2,3.85-10.88,5.7-.65-.77-1.29-1.53-1.94-2.31,3.98-5.45,7.96-10.89,11.94-16.34l6.12-15.91c2.74-4.03,5.32-8.2,8.48-11.87.25-.28,6.37,2.74,6.49,4.45.34,4.66.28,10.33-2.09,14Zm51.77,14.31c-14.63-21.16-29.16-42.38-44.06-63.36-1.45-2.05-5.48-2.08-7.78-3.77-3.17-2.33-8.49-5.64-8.24-8.03,1.19-10.98-6.12-11.88-13.49-13.35-3.19.06-6.38.12-9.57.17,2.24-2.97,4.48-5.95,7.25-9.61-6.45-4.59-12.59-8.95-18.73-13.31-.37-2.23-.75-4.46-1.13-6.7.55-.32,1.1-.64,1.63-.96,7.21,4.22,14.5,8.5,22.79,13.37,1.79-10.42,3.44-19.96,5.08-29.51,1.2-.07,2.39-.14,3.59-.22.72,4.66,1.17,9.38,2.2,13.96,1.66,7.37,1.93,15.86,5.95,21.72,9.44,13.76,20.77,26.24,31.28,39.29.86,1.07,1.22,2.51,3.01,6.28-5.39-3.12-8.59-4.97-11.8-6.82-.83.87-1.66,1.74-2.49,2.62,4.9,3.99,9.82,7.98,14.7,12,1.58,1.29,3.61,2.38,4.56,4.05,5.63,9.98,11.46,19.88,16.16,30.29,1.43,3.18-.51,7.88-.91,11.88Zm63.4-75.75c-.52-.54-1.04-1.07-1.56-1.59-2.65-.22-6.08-1.6-7.8-.45-9.17,6.13-17.92,12.92-26.8,19.47-.92.32-1.83.64-2.74.96-.1-.25-.19-.5-.28-.75.81-.32,1.62-.65,2.43-.98-1.43-.91-3.34-2.93-4.22-2.55-11.7,4.98-20.92-2.35-29.69-7.24-5.25-2.92-7.77-10.74-11.51-16.36-5.13-4.44-10.26-8.88-15.38-13.32.66-.98,1.32-1.95,1.98-2.93,5.57,3.28,11.13,6.54,16.69,9.82,1.01-5.35,2.03-10.7,3.01-16.05,1.11-6.09,2.05-12.22,3.35-18.26.28-1.3,2.16-2.21,2.61-3.53,6.43-19.14,23.24-16.11,37.85-17.92,8-.99,15.95-2.3,23.93-3.47l.97.04.06.97c-4.1,4.75-3.99,9.06.97,13.28,3.08,2.61,5.86,5.6,8.59,8.56,14.15,15.37,13.09,37.46-2.46,52.29Z"/>
        <path d="m496.6,713.02c-1,.33-2.04.54-3.14.54-.48,0-.94.04-1.42.07-2.42.4-4.73.05-6.71-.93.81,8.98,1.61,17.78,2.4,26.55,1.39,3.15,2.78,6.29,5.2,11.76,3.62-5.37,5.83-8.65,8.03-11.92-.52-8.52-1.05-17.06-1.6-26.15-.91.12-1.84.18-2.76.08Z"/>
        <path d="m743.65,162c0,.06.02.12.03.19.03-.01.06-.03.09-.04,0,0-.12-.14-.11-.14Z"/>
        <path d="m545.83,764.23c-1.17-.03-2.33-.06-3.5-.09l.36-2.82.66-1.41c1.44-3.07,2.88-6.13,4.31-9.2,2.55-5.42,5.16-10.97,7.74-16.52.13,9.93-2.78,19.85-8.05,29.75-.51.09-1.02.2-1.52.3Z"/>
        <path d="m567.64,718.47c-.13-.21-.25-.43-.37-.64,2.54-1.68,5.37-2.87,8.46-3.55-2.15,1.82-4.8,3.26-8.1,4.18Z"/>
        <path d="m597.33,715.5c-1.37,2.24-2.66,4.33-3.95,6.42.06-2.33.11-4.67.16-7l3.79.58Z"/>
        <path d="m585.93,732.82c-1.51,2.25-3.02,4.49-4.53,6.73,3.16,11.57,1.19,22.02-2.35,32.13-2.96,8.42-7,16.6-10.09,24.99-1.57,4.31-3.04,8.65-4.54,12.99-.05.15-.11.31-.16.46,0,0,.23.32.23.32-3.5,4.16-7.01,8.35-10.39,12.37h0c-.8.97-1.6,1.91-2.4,2.86-2.97,3.56-5.84,6.96-8.49,10.13.44-3.38.87-6.77,1.3-10.19.12-.93.24-1.86.36-2.79.55-4.24,1.1-8.51,1.64-12.8,1.61-12.62,3.26-25.4,4.89-38.22.33-2.55.66-5.11.99-7.66,4.75-10.15,9.54-20.29,14.23-30.45,3.98-8.63,10.92-11.11,19.8-9.77-.31.73-.63,1.44-.95,2.16-.01.81-.02,1.61-.03,2.41.17,1.45.34,2.9.5,4.34Z"/>
        <path d="m515.88,717.82c-1.95-2.85-4.18-5.51-6.29-8.26-.86,1.48-1.95,2.93-2.95,4.39,0,.63-.05,1.26-.19,1.88-.38,1.65-1.32,2.97-2.55,3.94,0,.04-.02.08-.03.12-.96,7.18-.38,14.56-.45,21.86-.01,1.16-.02,2.32-.03,3.48,1.36.37,2.71.74,4.07,1.11,5.37-3.77,6.34-.44,6.43,4.05.09,4.63.02,9.27.02,15.27,5.37-5.06,9.45-8.91,13.53-12.76-.06-5.97-.12-11.93-.18-17.9-3.78-5.74-7.5-11.52-11.38-17.19Z"/>
        <path d="m527.44,752.9l.09-.08s-.06.05-.09.08h0Z"/>
        <path d="m555.4,734.18c.13,9.93-2.78,19.85-8.05,29.75-.51.09-1.02.2-1.52.3-1.17-.03-2.33-.06-3.5-.09-.55,0-1.1-.03-1.65-.04-.96-1.98-1.9-3.95-2.86-5.94-2.7-7.71-5.4-15.42-8.1-23.12-4.25-11.01,3.18-18.77,8.19-26.86.92-1.47,6.43-.1,9.82-.04,5.15,8.69,7.57,17.38,7.67,26.04Z"/>
        <path d="m451.34,754.97c-1.43-2.92-2.86-5.83-4.28-8.73.03-.31.05-.61.07-.92.14.03.28.06.42.1l5.39,1.4,3.93,12.94s.09.77.23,2c-1.24,0-2.47.02-3.54.15-.74-2.32-1.48-4.63-2.22-6.94Z"/>
        <path d="m459,837.12c-.43.29-.86.59-1.28.88-2.55-4.42-5.21-8.81-7.84-13.2-.53-.89-1.06-1.76-1.58-2.65-3.17-5.31-6.28-10.65-9.13-16.1-.93-1.76-1.82-3.55-2.68-5.34-4.97-10.37-8.9-21.22-12.98-32.02-1.16-3.09-2.32-6.16-3.53-9.23l1.05.24c-.52-3.54-1.16-7.06-1.71-10.59-.53-3.37-1.01-6.73-1.24-10.12-1.11-15.39-.13-16.12,15.54-14.35,2.79,6.77,5.59,13.54,8.39,20.31.18.43.36.86.54,1.28.36,2.85.72,5.71,1.08,8.55.49.05.96.14,1.42.26.69,2.25,1.36,4.5,2.05,6.75.29,2.52.59,5.04.88,7.56.32,2.7.63,5.4.95,8.1.28,1.47.57,2.96.87,4.44.27,2.17.53,4.34.8,6.52.44,2.24.89,4.49,1.32,6.74.44,2.32.87,4.64,1.29,6.96.3,1.76.59,3.54.88,5.3.82,4.91,1.63,9.82,2.45,14.73.16.93.31,1.85.46,2.77.68,4.07,1.35,8.14,2.03,12.2Z"/>
        <path d="m486.26,741.77c-.15,4.63-.31,9.26-.46,13.89-1,.03-1.99.06-2.98.09-3.68-4.11-7.37-8.24-11.05-12.35-2.84,5.77-5.12,11.95-8.83,17.09-.87,1.21-3.34,1.24-5.84,1.27-1.24,0-2.47.02-3.54.15-.74-2.32-1.48-4.63-2.22-6.94-1.43-2.92-2.86-5.83-4.28-8.73.03-.31.05-.61.07-.92.8-9.94.85-20.03,2.79-29.74,2.15-10.71,9.78-12.38,18.33-5.09,1.14,2.91,2.26,5.82,3.4,8.72.69.78,1.37,1.55,2.06,2.34.17.64.33,1.27.47,1.92,9.59,2.42,11.3,10.05,12.08,18.28Z"/>
        <path d="m261.04,164.22s0,.01,0,.02c0,0,.01,0,.02.01l-.03-.03Z"/>
        <path d="m256.69,162.14s.06.03.09.04c0-.06.02-.12.03-.19,0,0-.11.14-.11.14Z"/>
      </g>
      <path d="m752.17,240.73c-1.34.88-2.67,1.76-4.01,2.64l-.21,4.69c.95,1.96,1.26,4.32.49,6.88-.37,1.21-.67,2.44-.95,3.69l-.07,1.54c-.25,2.71-.39,5.45-.56,8.19,11.08,19.28,8.56,46.55,7.73,67.85-1.38,35.61-8.07,70.51-15.87,104.96-1.1,4.87-5.03,6.92-8.73,6.69-.05.62-.09,1.24-.14,1.86-.83,10.76-1.84,21.47-3.23,32.11,3.47-7.77,8.76-15.23,13.52-23.8.04,7.65-.03,12.23.12,16.81.16,4.94.53,9.88.81,14.83.52-.68,1.05-1.36,1.57-2.04,2.57-4.98,5.14-9.96,7.71-14.94-.12-1.28-.24-2.56-.36-3.84.48-1.8.97-3.6,1.45-5.4.55-3.13,1.1-6.27,1.65-9.4,1.13-2.96,2.25-5.92,3.38-8.87-.18-3.55-.36-7.09-.54-10.64.31-5.85.61-11.69.91-17.55.1-2.2.21-4.4.31-6.6.36-3.29.72-6.57,1.08-9.86.73-6.44,1.47-12.88,2.2-19.31.28-4.84.56-9.67.84-14.51l-.31-7.2c.18-3.32.36-6.64.54-9.96.31-14.36.62-28.72.93-43.08-.12-4.12-.24-8.24-.36-12.37-.1-4.65-.2-9.3-.3-13.94-3.2-13.15-6.4-26.29-9.59-39.44Z"/>
      <path d="m248.53,240.73c1.34.88,2.67,1.76,4.01,2.64l.21,4.69c-.95,1.96-1.26,4.32-.49,6.88.37,1.21.67,2.44.95,3.69l.07,1.54c.25,2.71.39,5.45.56,8.19-11.08,19.28-8.56,46.55-7.73,67.85,1.38,35.61,8.07,70.51,15.87,104.96,1.1,4.87,5.03,6.92,8.73,6.69.05.62.09,1.24.14,1.86.83,10.76,1.84,21.47,3.23,32.11-3.47-7.77-8.76-15.23-13.52-23.8-.04,7.65.03,12.23-.12,16.81-.16,4.94-.53,9.88-.81,14.83-.52-.68-1.05-1.36-1.57-2.04-2.57-4.98-5.14-9.96-7.71-14.94.12-1.28.24-2.56.36-3.84-.48-1.8-.97-3.6-1.45-5.4-.55-3.13-1.1-6.27-1.65-9.4-1.13-2.96-2.25-5.92-3.38-8.87.18-3.55.36-7.09.54-10.64-.31-5.85-.61-11.69-.91-17.55-.1-2.2-.21-4.4-.31-6.6-.36-3.29-.72-6.57-1.08-9.86-.73-6.44-1.47-12.88-2.2-19.31-.28-4.84-.56-9.67-.84-14.51l.31-7.2c-.18-3.32-.36-6.64-.54-9.96-.31-14.36-.62-28.72-.93-43.08.12-4.12.24-8.24.36-12.37.1-4.65.2-9.3.3-13.94,3.2-13.15,6.4-26.29,9.59-39.44Z"/>
    </g>
    <path d="m436.74,822.16h-22.79c3.21-4.09,5.98-7.65,8.76-11.2-3.91,3.03-6.49,7.69-10.46,9.84-3.8,2.06-9.02,1.51-13.62,2.11-.11-.41-.23-.82-.34-1.22,6.52-3.07,12.15-7.21,15.16-13.83,1.25-2.74,2.85-3.16,5.43-2.97,2.94.21,5.88.38,8.82.54-.06-.13-.13-.27-.19-.4-4.64-9.67-8.4-19.7-12.03-29.4-.86-2.28-1.72-4.6-2.61-6.92h-11.59s.07-.07.1-.1c-.14,0-.28.03-.43.03-.42-.06-.84-.11-1.25-.17-.04,0-.07-.03-.11-.04-.62,0-1.22-.04-1.83-.1-.18,0-.37,0-.55,0-3.45-.02-6.44-.68-9.67-1.87-1.9-.07-3.81-.08-5.71.03-.21,0-.41,0-.61,0h-.03c-50.36-.17-100.72-.33-151.08-.5,1.26.75,2.49,1.22,2.84,2.04,1.84,4.43.94,15.42-1.49,17.72-.04-.34-.07-.68-.1-1.03.04-.06.07-.13.11-.2-.04.02-.08.03-.13.05-.59-6.14-1.15-11.97-1.78-18.58-1.89,0-3.78-.02-5.68-.02,0-.02,0-.04,0-.05-.5-.03-.97-.12-1.37-.26-1.22,0-2.44,0-3.65,0-.42.12-.88.19-1.38.19-.23,0-.45-.02-.66-.05-.15.02-.29.03-.44.03h-.03c-.31.07-.65.11-1.01.11-.16,0-.31-.02-.46-.04-.08,0-.16,0-.24,0-.07,0-.14,0-.2,0v.05c-1.22,0-2.45,0-3.67-.02.45,7.06.87,13.47,1.34,20.66-1.4-1.57-2.9-2.67-3.59-4.14-2.2-4.74-2.63-9.43,2.14-13.28-1.18-.47-1.8-.7-2.41-.95.85-.86,1.69-1.68,2.29-2.29h-2.37c-2.03,2.05-3.42,4.73-3.49,7.69-.09,3.76,1.22,7.66,2.45,11.31.44,1.29,2.54,2.93,3.84,2.89,1.19-.03,2.16.16,2.99.51.55-.08,1.14-.07,1.76.06,1.75.36,3.49.75,5.21,1.16.06,0,.12,0,.18,0,.07,0,.13,0,.2,0h-.01c.57-.11,1.13-.22,1.68-.37,1.49-.4,2.97-.88,4.41-1.39,0,0,0,.02,0,.03.09-.05.18-.09.26-.14.14-.08.27-.14.42-.2.08-.04.16-.07.24-.1.18-.06.37-.11.56-.15.27-.06.54-.1.83-.11.22-.11.42-.24.64-.34,1.03-.46,2.03-.56,2.95-.38,9.17-.91,17.84-2.26,26.46-2.1,28.32.54,56.63,1.76,84.94,2.84,1.82.07,3.61,1.18,5.48,1.81-.03.05-.06.09-.08.13.29.08.58.17.87.28,2.08-.43,4.17-.86,6.25-1.28.92-.19,1.74-.14,2.47.1,3.16.12,6.63.92,10.22,1.06-.11.07-.22.15-.32.22.5-.06,1-.02,1.49.14.48.12.9.34,1.28.62.08-.07.16-.13.24-.21,4.06,4.46,7.72,8.48,11.05,12.15,3.29-2.53,6.38-6.11,10.3-7.61,3.43-1.3,8.15-1.34,11.6-.07,7,2.59,8.2,9.5,3.27,15.15-4.65,5.31-10.37,8.94-17.4,10.42-1.72.36-3.34,1.26-4.99,1.91.03.42.06.85.09,1.26,1.88.27,3.74.72,5.63.76,15.39.3,30.77.84,46.15.91-.53-.89-1.06-1.78-1.57-2.68Zm-212.37-34.11c-.91.48-1.97.97-3.1,1.4-.11-.15-.22-.29-.35-.41-3.26-3.33-3.61-2.84-4-6.53-.52-4.99-1.37-9.94-1.87-14.93,1.55.2,3.12.41,4.67.61.55-.04,1.11-.06,1.66-.06.19-.05.4-.07.64-.05.15-.04.32-.06.5-.05.14-.03.28-.04.42-.05.37.74.6,1.49.63,2.18.14,3.53.79,7.06,1.52,10.53.41,1.96,1.23,3.83,1.95,5.74-.88.64-1.81,1.18-2.67,1.62Zm3.94-5.59c-2.8-4.83-3.74-9.82-1.71-15.1.5-.02,1.01-.05,1.51-.07.53,5.02,1.05,10.04,1.57,15.06-.46.03-.92.07-1.37.11Zm6.74,2.25v-17.75c3.23-.92,4.65.46,4.88,3.58.2,2.62.27,5.3.88,7.85,1.1,4.68-.61,6.69-5.76,6.32Zm7.88-1.33c-.62-5.76-1.18-10.91-1.77-16.43,2.24.12,3.85.21,5.69.32.41,5.3.77,10.08,1.16,15.12-1.71.34-3.04.6-5.07,1Zm7.4-4.95c-.26-.03-.5-.06-.76-.09-.43-3.61-.87-7.2-1.32-11h4.71c-.99,4.15-1.81,7.63-2.63,11.09Zm17.5,3.79c-2.25,0-4.42,0-6.59,0-6.07,0-8.69-2.96-7.89-9.13.24-1.94.79-3.84,1.19-5.71h13.29v14.84Zm2.45-.14c.72-4.94,1.37-9.49,2.03-14.05.37.05.73.11,1.1.15.84,4.6,1.67,9.18,2.53,13.9h-5.66Zm9.84.15c-.94,0-2.5-.95-2.68-1.72-1.02-4.15-1.68-8.4-2.44-12.42h32.59c-1.02,5.33-1.91,10.04-2.72,14.23-8.57,0-16.67.05-24.76-.09Zm26,1.07c.92-4.79,1.6-8.88,2.54-12.93.19-.82,1.19-1.72,2.01-2,.41-.15,1.59.88,1.88,1.59,1.78,4.41,3.4,8.88,5.33,14.01-4.19-.24-7.42-.43-11.76-.68Zm15.09.73c-.86-.02-2.14-.84-2.43-1.58-1.73-4.58-3.24-9.25-4.87-14.05,4.37,0,8.42.06,12.47-.02,2.64-.05,3.84,1.11,4.39,3.72.82,3.93,2.11,7.76,3.31,12.01-4.49,0-8.68.09-12.87-.08Zm23.67.61c1.25-3.29,2.48-6.54,3.72-9.8.32,9.49-.07,10.41-3.72,9.8Zm-1.63.47c-.42-.15-.86-.3-1.27-.45.48-1.16.96-2.31,1.37-3.3-1.89,1.2-4.09,3.55-5.21,3.12-1.69-.66-3.02-3.12-3.77-5.08-1.24-3.23-1.89-6.66-2.78-9.97h17.12c-1.97,5.66-3.7,10.67-5.46,15.67Zm7.88,1.9c-.6-.87-1.76-1.8-1.67-2.59.56-5.03,1.39-10.04,2.13-15.05h1.33c.28,5.17.65,10.33.7,15.5.01.71-1.61,1.42-2.49,2.14Zm4-1.44v-15.4h15.45c-.92,5.88-1.75,11.22-2.6,16.61-4.43-.42-8.41-.8-12.85-1.22Zm22.32,5.16c-2.73-1.63-4.95-2.96-7.74-4.62.78-5.26,1.57-10.58,2.4-16.09,2.13.12,3.89.22,5.34.3v20.42Zm5.03,5.18c-1.47-.77-2.34-1.65-2.36-2.57-.23-7.02-.37-14.05-.29-21.07,0-.79,1.59-1.56,2.65-2.53v26.17Zm148.16-24.25c-11-.18-22-.61-32.95-1.49-4.67-.08-9.33-.17-14-.27-1.7-.03-3.41-.03-5.34-.02v-.23h-20.32c.27,2.34.53,4.64.73,6.3.21,1.13.86,4.39.86,4.39l.8,6.52,1.27,6.48,1.33,7.17c.32,1.9.71,4.27,1.16,6.92h4.37c.2.05.4.1.58.18,9.27.7,18.44,1.4,27.71,2.1-.31,1.38-.49,2.21-.67,3.03,5.71-5.75,12.17-1.32,18.67-2.48-1.95,3.27-3.43,5.72-4.89,8.17,1.41-.5,2.25-1.36,2.8-2.39,2.35-4.38,5.67-6.02,10.91-5.92,4.26.07,8.51.07,12.78.03l4.92-38.39c-3.57-.02-7.15-.05-10.73-.11Zm261.41,5.64c-38.2-.96-76.41-1.89-114.6-2.83-14.96-.38-29.91-.68-44.84-1.19,0-.02-.02-.04-.03-.07-1.36-.12-2.72-.26-4.09-.44-8.49-1.06-16.98-.11-25.51-.6-1.17-.06-2.29-.21-3.37-.42-.01,0-.02-.02-.03-.02-.09,0-.18,0-.28,0-.27,0-.52-.02-.76-.06-.26.04-.52.06-.81.06s-.58-.03-.85-.08c-.28.05-.58.08-.89.08-.24,0-.47-.02-.69-.05h-5.79c-1.89,6.03-4.33,11.76-6.65,17.22-1.65,3.86-3.21,7.52-4.56,11.2-1.04,2.81-2.04,5.72-3.01,8.55l.17.26c.56-.08,1.16-.12,1.8-.13,7.43-.07,14.88-.15,22.28-.65,12.58-.86,25.12-2.05,36.93-3.05.32-.2.67-.37,1.05-.49h15.45c.12.06.24.12.36.19,4.57-.42,9-2.47,13.59-.36.8-.56,2.37-1.65,4.71-3.29-.38,2.7-.57,4.02-.94,6.66,3.41-6.76,5.54-7.7,14.63-7.25-1.51,1.9-2.95,3.7-4.37,5.51,8.63-7.38,10.54-8.15,24.32-8.99.57,1.1,1.17,2.26,2.2,4.23v-4.98c3.1-.63,6.02-1.12,8.89-1.8,15.96-3.8,32.06-7.11,47.76-11.73,6.06-1.78,11.72-3.97,18.38-2.24-6.03,2.47-11.92,5.32-18.09,7.32-30.08,9.85-60.88,16.72-91.96,22.48-6.3,1.17-12.62,2.39-18.98,3.04-.3.03-.61-.02-.92-.13-.36.14-.76.22-1.2.26-.65.4-1.44.63-2.39.63l.21.21c-.49,0-.99-.03-1.48-.04-1.31.24-2.64.41-3.99.54-.16.06-.33.09-.5.13-.1.02-.2.05-.3.06-.24.04-.48.06-.73.06-.32.1-.65.17-1.01.21-.17,0-.33.04-.5.04-.08,0-.16,0-.24,0,.02.04.04.08.05.12-.69.17-1.38.23-2.08.2,0,.06-.02.12-.03.19-23.63,3.61-47.25,5.88-71.04,6.66l-2.6,3.1c3.95-.07,7.91-.19,11.86-.39,19.05-.96,38.05-3.09,57.06-4.83,3.69-.79,7.41-1.54,11.13-2.15,4.53-.43,9.06-.86,13.58-1.28.8,0,1.59,0,2.38.02,46.36-8.17,91.91-18.17,134.54-39.21-1.09-.17-2.17-.45-3.26-.48Zm-265.82,45.09c1.74-2.16,3.13-3.89,4.51-5.61-.27-.46-.53-.9-.8-1.33-3.53,7.89-10.06,7.73-16.72,7.56-7.82-.22-15.65-.45-23.46-.16-2.34.09-4.5-.11-6.53-.65-.18.02-.35.04-.53.04h-.48c-.16,0-.32,0-.47-.02-.11.11-.23.2-.36.28-1.17.15-2.53.14-4.15.05-.11,0-.23,0-.34,0-.42-.06-.84-.12-1.26-.17-.11-.03-.21-.08-.32-.12-.04,0-.07,0-.11,0-.4,0-.77-.05-1.11-.12-1,0-1.99.02-2.98.04-1.51-.04-3.02-.05-4.53-.04.15.93.31,1.84.46,2.75.58-.07,1.19-.14,1.82-.23.74-.1,1.46-.17,2.18-.21.72.04,1.44.11,2.18.21,3.53.48,6.17.68,8.23.61v.06s-.03.06-.04.09c.35-.08.71-.12,1.11-.12.69,0,1.28.13,1.82.35.18-.02.38-.03.58-.03.05,0,.11,0,.16,0,0-.02,0-.03-.02-.04h.22c2.76-.87,6.48-.35,9.1-.34,6.6.02,13.2,0,19.82,0,.55,0,1.06.08,1.5.22,3.37-.19,6.75-.31,10.13-.34.64,0,1.19.09,1.7.27,2.31,0,4.61.04,6.92.07l.36-2.83c-2.87-.07-5.74-.16-8.6-.28Z"/>
  </g>
  <g>
    <path d="m600.02,545.3c-2.15,1.37-3.85,3.21-5.87,4.79.2-.4.36-.82.62-1.18,2.17-3.07,4.63-5.91,7.49-8.35,1.28-1.1,2.84-1.89,4.34-2.7,2.32-1.26,4.65-2.54,7.08-3.57,1.9-.81,3.9-1.49,5.93-1.83,2.19-.37,4.44-.43,6.67,0,2.07.4,4.17.7,6.24,1.12,1.95.4,3.88.89,5.82,1.35.21.05.4.24.71.43-.55.28-.99.5-1.65.84.72.45,1.25.79,1.8,1.1,3.99,2.29,7.24,5.41,9.98,9.05,1.42,1.88,2.67,3.9,3.82,5.95.52.93.58,2.1.93,3.14,1.91,5.69,2.23,11.48,1.01,17.35-.49,2.35-1.02,4.7-1.73,6.98-.78,2.53-1.88,4.95-3.36,7.17-1.08,1.62-2.22,3.22-3.46,4.72-2.73,3.3-6.15,5.77-9.7,8.13-3.45,2.29-7.21,3.79-11.15,4.81-4.11,1.07-8.32,1.55-12.59,1.28-3.32-.21-6.56-.91-9.61-2.15-3.53-1.43-6.79-3.42-9.28-6.38-2.71-3.21-4.63-6.84-5.85-10.89-1.21-4.01-1.42-8.09-1.19-12.21.24-4.28,1.14-8.48,2.63-12.48,1.29-3.47,3.09-6.72,5.15-9.82,1.36-2.05,2.93-3.9,4.53-5.75.25-.29.48-.61.71-.91Zm19.46,54.97c3.76-.02,7.45-.5,11.06-1.61,2.2-.68,4.17-1.84,6.17-2.92,3.89-2.1,7.16-4.94,9.7-8.58,3.46-4.96,5.53-10.39,5.6-16.51.02-2.32.04-4.67-.56-6.92-.68-2.51-1.4-5.02-2.72-7.3-.94-1.62-1.78-3.29-2.76-4.89-1.55-2.53-3.32-4.85-6.34-5.8-.27-.08-.51-.25-.77-.37-2.15-.98-4.38-1.73-6.66-2.35-2.78-.75-5.62-.82-8.48-.84-2.59-.02-5.11.41-7.6,1-.85.2-1.71.56-2.46,1.03-3.87,2.38-7.32,5.27-10.23,8.79-1.75,2.12-3.29,4.38-4.49,6.82-2.05,4.16-3.77,8.46-4.37,13.14-.41,3.2-.71,6.39-.29,9.61.62,4.8,2.97,8.67,6.49,11.83,2.62,2.35,5.85,3.67,9.18,4.66,3.1.91,6.3,1.23,9.54,1.21Z"/>
    <path d="m607.08,575.63c.05-5.59.94-10.15,2.93-14.46.49-1.07.98-2.16,1.63-3.14,1.11-1.66,2.68-2.83,4.49-3.65,3.94-1.77,8.08-2.57,12.37-2.17,2.24.21,4.3,1.18,6.29,2.24,2.14,1.14,3.81,2.72,4.99,4.87,1.55,2.82,3.13,5.62,4.06,8.73.84,2.8.82,5.6.02,8.43-.64,2.23-1.13,4.5-2.25,6.57-1.4,2.6-3.24,4.72-5.86,6.22-2.28,1.3-4.57,2.48-7.09,3.23-2.43.72-4.87.91-7.35.26-2.56-.67-5.13-1.32-7.4-2.78-1.47-.94-2.62-2.19-3.52-3.67-.42-.69-.78-1.43-1.16-2.15-1.56-2.94-2.35-6.05-2.14-8.53Zm19.33,5.04c1.05-.29,2.14-.47,3.14-.89,2.67-1.13,4.12-3.32,4.95-6,1.05-3.44-.36-7.15-3.46-9.13-2.99-1.91-6.81-1.58-9.49.83-1.43,1.29-2.3,2.93-2.83,4.76-1.46,5.03,2.42,10.23,7.69,10.43Z"/>
  </g>
  <g>
    <path d="m400.54,545.3c2.15,1.37,3.85,3.21,5.87,4.79-.2-.4-.36-.82-.62-1.18-2.17-3.07-4.63-5.91-7.49-8.35-1.28-1.1-2.84-1.89-4.34-2.7-2.32-1.26-4.65-2.54-7.08-3.57-1.9-.81-3.9-1.49-5.93-1.83-2.19-.37-4.44-.43-6.67,0-2.07.4-4.17.7-6.24,1.12-1.95.4-3.88.89-5.82,1.35-.21.05-.4.24-.71.43.55.28.99.5,1.65.84-.72.45-1.25.79-1.8,1.1-3.99,2.29-7.24,5.41-9.98,9.05-1.42,1.88-2.67,3.9-3.82,5.95-.52.93-.58,2.1-.93,3.14-1.91,5.69-2.23,11.48-1.01,17.35.49,2.35,1.02,4.7,1.73,6.98.78,2.53,1.88,4.95,3.36,7.17,1.08,1.62,2.22,3.22,3.46,4.72,2.73,3.3,6.15,5.77,9.7,8.13,3.45,2.29,7.21,3.79,11.15,4.81,4.11,1.07,8.32,1.55,12.59,1.28,3.32-.21,6.56-.91,9.61-2.15,3.53-1.43,6.79-3.42,9.28-6.38,2.71-3.21,4.63-6.84,5.85-10.89,1.21-4.01,1.42-8.09,1.19-12.21-.24-4.28-1.14-8.48-2.63-12.48-1.29-3.47-3.09-6.72-5.15-9.82-1.36-2.05-2.93-3.9-4.53-5.75-.25-.29-.48-.61-.71-.91Zm-19.46,54.97c-3.76-.02-7.45-.5-11.06-1.61-2.2-.68-4.17-1.84-6.17-2.92-3.89-2.1-7.16-4.94-9.7-8.58-3.46-4.96-5.53-10.39-5.6-16.51-.02-2.32-.04-4.67.56-6.92.68-2.51,1.4-5.02,2.72-7.3.94-1.62,1.78-3.29,2.76-4.89,1.55-2.53,3.32-4.85,6.34-5.8.27-.08.51-.25.77-.37,2.15-.98,4.38-1.73,6.66-2.35,2.78-.75,5.62-.82,8.48-.84,2.59-.02,5.11.41,7.6,1,.85.2,1.71.56,2.46,1.03,3.87,2.38,7.32,5.27,10.23,8.79,1.75,2.12,3.29,4.38,4.49,6.82,2.05,4.16,3.77,8.46,4.37,13.14.41,3.2.71,6.39.29,9.61-.62,4.8-2.97,8.67-6.49,11.83-2.62,2.35-5.85,3.67-9.18,4.66-3.1.91-6.3,1.23-9.54,1.21Z"/>
    <path d="m393.47,575.63c-.05-5.59-.94-10.15-2.93-14.46-.49-1.07-.98-2.16-1.63-3.14-1.11-1.66-2.68-2.83-4.49-3.65-3.94-1.77-8.08-2.57-12.37-2.17-2.24.21-4.3,1.18-6.29,2.24-2.14,1.14-3.81,2.72-4.99,4.87-1.55,2.82-3.13,5.62-4.06,8.73-.84,2.8-.82,5.6-.02,8.43.64,2.23,1.13,4.5,2.25,6.57,1.4,2.6,3.24,4.72,5.86,6.22,2.28,1.3,4.57,2.48,7.09,3.23,2.43.72,4.87.91,7.35.26,2.56-.67,5.13-1.32,7.4-2.78,1.47-.94,2.62-2.19,3.52-3.67.42-.69.78-1.43,1.16-2.15,1.56-2.94,2.35-6.05,2.14-8.53Zm-19.33,5.04c-1.05-.29-2.14-.47-3.14-.89-2.67-1.13-4.12-3.32-4.95-6-1.05-3.44.36-7.15,3.46-9.13,2.99-1.91,6.81-1.58,9.49.83,1.43,1.29,2.3,2.93,2.83,4.76,1.46,5.03-2.42,10.23-7.69,10.43Z"/>
  </g>
</svg>