<?xml version="1.0" encoding="UTF-8"?>
<svg id="Layer_1" data-name="Layer 1" xmlns="http://www.w3.org/2000/svg" viewBox="0 0 1000 1000">
  <defs>
    <style>
      .cls-1 {
        fill: #eae2d3;
      }
    </style>
  </defs>
  <g>
    <g>
      <g>
        <path class="cls-1" d="m751.7,146.97h.02s0-.02,0-.03l-.03.03Z"/>
        <path class="cls-1" d="m802.2,575.47c-1.96-9.07-5.64-16.27-4.23-22.29,1.48-6.3,7.83-11.46,12.06-17.11-.68-.94-1.36-1.87-2.03-2.82-4.2,1.14-8.4,2.24-12.58,3.43-4.45,1.27-8.88,3.61-13.33,3.64-4.65.05-9.32-2.09-13.98-3.28,2.69-3.25,5.86-6.2,7.95-9.8,2.09-3.62,5.1-8.48,4.13-11.73-1.52-5.09-5.54-9.91-9.72-13.38-.95-.8-6.89,4.29-10.45,6.79-1.5,1.06-2.79,2.42-3.78,3.3-5.57-4.54-11.37-7.94-15.17-12.86-2.29-2.98-2.36-8.46-1.84-12.62.57-4.63,2.93-9.03,5.14-15.31,2.37-.35,5.26-.05,8.2.14,3.79.24,7.67.31,10.57-1.41,1.96-1.15,3.48-3.12,4.24-6.39-.81-1.97-1.59-3.9-2.37-5.79-4.26-10.44-8.12-19.84-11.93-29.15h0c-.39-.98-.79-1.95-1.18-2.92-1.34-1.47-2.69-2.93-4.04-4.4-3.25,8.16-5.07,17.39-10.17,24.17-4.37,5.8-12.47,8.79-18.93,13.02.33,1.48,1.14,3.06.86,4.4-.48,2.27-1.4,4.6-2.72,6.47-.41.59-3.74.22-4.03-.44-.93-2.19-1.83-4.87-1.35-7.05.53-2.38,2.62-4.41,4.02-6.6,4.04-8.31,8.09-16.62,12.14-24.93.15-1.52.3-3.05.45-4.57-1.5-.24-2.98-.48-4.48-.72-1.58-.1-3.16-.21-4.74-.32-7.29,2.52-14.58,5.05-21.86,7.56-.91-1.03-1.82-2.06-2.72-3.1,16.64-4.91,18.19-19.11,22.48-31.61-.88-.69-1.77-1.37-2.66-2.05-5.54,2.5-11.09,5.01-17.5,7.9-3.82-20.49,10.13-31.81,22.28-47.87-.83,7.47-1.42,11.94-1.79,16.42-.4,4.85-.57,9.72-.84,14.58.62-.61,1.25-1.21,1.87-1.82,3.26-4.6,6.5-9.18,9.76-13.78.02-1.26.04-2.52.06-3.78.71-1.71,1.41-3.41,2.12-5.12.93-3.01,1.86-6.01,2.8-9.01,1.51-2.77,3.03-5.54,4.55-8.3.21-3.49.43-6.97.65-10.45.98-5.68,1.97-11.36,2.94-17.04.36-2.15.72-4.28,1.08-6.41.75-3.17,1.5-6.35,2.25-9.52,1.5-6.21,3-12.42,4.5-18.63.84-4.69,1.69-9.39,2.52-14.08l.5-7.06c.57-3.23,1.13-6.45,1.7-9.66,1.95-14,3.91-27.99,5.86-41.98.35-4.04.69-8.08,1.03-12.13.43-4.55.85-9.1,1.28-13.64-1.85-13.18-3.7-26.37-5.55-39.54-1.5.71-3,1.43-4.48,2.16-.9,5.43-1.79,10.88-2.69,16.31-1.39,6.38-2.01,13.05-4.33,19.06-4.9,12.66-10.7,24.96-16.13,37.41-1.24,2.42-2.47,4.83-3.7,7.25-1.17,5.39-2.36,10.79-3.53,16.19-1.83,5.47-3.65,10.94-5.48,16.42-3.28,3.87-6.56,7.74-9.85,11.61-.28,1.1-.55,2.2-.86,3.31-.27,1.21-.53,2.43-.8,3.63-3.03,18.72-12.03,34.32-24.71,48.14-4.42,4.81-8.18,10.21-12.23,15.35-3.58,6.21-7.16,12.43-10.75,18.65l-3.2-1.61c3.04-5.72,6.06-11.44,9.09-17.16-3.42-10.05-6.02-1.69-7.57.72-11.94,18.58-23.54,37.37-35.3,56.06-1.03,1.63-2.43,3.03-3.65,4.52-.5,5.83-.7,11.71-1.59,17.48-1.75,11.26.42,13.78,11.97,11.79,7.67-1.33,15.14-3.85,22.81-5.26,3.85-.71,7.95-.13,11.94-.13.16,1.05.32,2.09.48,3.14-22.45,7.18-44.9,14.37-67.17,21.5,1.15-13.79,1.52-25.41,3.34-36.8.94-5.91,4.47-11.4,6.83-17.08,4.1,1.55,7.12,2.69,10.14,3.82,1.43-10.25,2.79-20.51,4.33-30.74,1.23-8.05,2.69-16.06,4.6-27.37-5.47,4.73-8.75,7.58-12.03,10.43-9.33,9.14-18.65,18.28-27.98,27.42-.89-.62-1.77-1.23-2.67-1.84,2.83-5.59,6.08-11.03,8.33-16.85,1.7-4.35,2.09-9.18,3.08-13.8-4.62,2.7-10.6,4.36-13.59,8.29-6.07,7.98-12.75,14.95-20.32,20.91-4.19,1.82-7.98,3.99-10.96,7.46-2.98,1.74-6.06,3.39-9.33,4.86-4.1,1.83-6.6,7.29-10.18,12.02-.27-.79-.53-1.57-.8-2.35,2.05-4.84,4.09-9.68,6.46-14.33,3.52-6.91,7.71-13.49,11.56-20.23,4.05-7.07,8.07-14.17,12.1-21.26-1.63-2.21-3.26-4.42-4.89-6.64-8.55,15.18-18.81,28.46-33.17,38.95-2.2-6.5-4.44-13.13-6.83-20.21-4.23,8.5-5.99,13.77-9.15,17.99-1.03,1.38-2.04,2.61-3.1,3.66-1.05-1.06-2.06-2.28-3.09-3.66-3.16-4.22-4.92-9.49-9.15-17.99-2.39,7.08-4.63,13.71-6.83,20.21-14.37-10.49-24.62-23.77-33.17-38.95-1.63,2.22-3.26,4.43-4.89,6.64,4.03,7.09,8.04,14.19,12.09,21.26,3.86,6.74,8.04,13.32,11.56,20.23,2.38,4.66,4.42,9.5,6.47,14.33-.26.77-.53,1.56-.8,2.35-3.58-4.73-6.07-10.19-10.18-12.02-3.27-1.47-6.35-3.12-9.33-4.86-2.98-3.47-6.77-5.63-10.96-7.46-7.57-5.96-14.25-12.93-20.32-20.91-2.99-3.94-8.97-5.59-13.59-8.29.98,4.62,1.38,9.46,3.07,13.8,2.26,5.82,5.52,11.26,8.33,16.85-.89.62-1.78,1.23-2.67,1.84-9.32-9.14-18.65-18.28-27.97-27.42-3.29-2.85-6.57-5.7-12.03-10.43,1.91,11.31,3.37,19.32,4.6,27.37,1.55,10.23,2.9,20.49,4.33,30.74,3.02-1.13,6.03-2.27,10.14-3.82,2.36,5.68,5.88,11.17,6.83,17.08,1.82,11.38,2.19,23,3.34,36.8-3.87-1.25-7.78-2.49-11.66-3.74l-6.08-7.62h-4.72c-3.64.23-7.3.44-10.94.67-11.24-3.6-22.5-7.2-33.76-10.81.16-1.05.32-2.09.48-3.14,3.99,0,8.08-.59,11.94.13,7.67,1.4,15.13,3.93,22.81,5.26,11.55,1.99,13.72-.53,11.97-11.79-.89-5.77-1.09-11.64-1.59-17.48-1.23-1.5-2.63-2.89-3.65-4.52-11.76-18.69-23.36-37.49-35.3-56.06-1.55-2.41-4.15-10.77-7.57-.72,3.03,5.72,6.05,11.44,9.09,17.16-1.07.54-2.14,1.08-3.2,1.61-3.59-6.22-7.17-12.44-10.75-18.65-4.05-5.14-7.81-10.54-12.23-15.35-12.68-13.81-21.69-29.41-24.71-48.14-.26-1.2-.52-2.42-.8-3.63-.3-1.11-.58-2.21-.86-3.31-3.29-3.87-6.58-7.74-9.85-11.61-1.82-5.48-3.64-10.95-5.48-16.42-1.17-5.4-2.36-10.8-3.53-16.19-1.23-2.42-2.46-4.83-3.7-7.25-5.42-12.45-11.22-24.75-16.13-37.41-2.32-6.01-2.94-12.68-4.34-19.06-.9-5.43-1.79-10.88-2.69-16.31-1.5-.72-2.98-1.44-4.48-2.16-1.85,13.17-3.7,26.36-5.55,39.54.43,4.54.85,9.09,1.28,13.64.33,4.04.68,8.08,1.03,12.13,1.96,13.99,3.92,27.98,5.86,41.98.57,3.21,1.13,6.44,1.7,9.66l.5,7.06c.84,4.69,1.68,9.39,2.52,14.08,1.51,6.21,3.01,12.42,4.5,18.63.75,3.17,1.5,6.35,2.25,9.52.36,2.13.71,4.26,1.07,6.41.98,5.68,1.97,11.36,2.95,17.04.22,3.48.43,6.96.65,10.45,1.52,2.76,3.04,5.53,4.54,8.3.93,2.99,1.86,6,2.8,9.01.7,1.71,1.41,3.41,2.13,5.12.02,1.26.04,2.52.06,3.78,3.26,4.6,6.5,9.18,9.76,13.78.63.61,1.26,1.21,1.87,1.82-.27-4.86-.45-9.73-.84-14.58-.37-4.48-.96-8.95-1.79-16.42,12.16,16.06,26.1,27.38,22.28,47.87-6.41-2.89-11.96-5.39-17.51-7.9-.88.68-1.77,1.36-2.66,2.05,4.3,12.5,5.85,26.7,22.49,31.61-.91,1.04-1.81,2.07-2.72,3.1-7.29-2.51-14.58-5.04-21.86-7.56-1.58.12-3.16.22-4.74.32-1.5.24-2.98.48-4.48.72.15,1.52.29,3.05.45,4.57,4.04,8.31,8.09,16.62,12.14,24.93,1.39,2.19,3.49,4.22,4.01,6.6.49,2.18-.41,4.86-1.34,7.05-.29.66-3.62,1.03-4.03.44-1.33-1.87-2.24-4.2-2.72-6.47-.28-1.34.53-2.92.86-4.4-6.46-4.23-14.56-7.21-18.93-13.02-5.1-6.77-6.92-16.01-10.17-24.17-1.35,1.47-2.7,2.93-4.04,4.4-.33.83-.68,1.65-1.02,2.48h0c-3.81,9.33-7.65,18.72-11.91,29.14v.02c-.84,2.04-1.69,4.09-2.55,6.22.8,3.41,2.42,5.4,4.5,6.53,2.94,1.61,6.8,1.5,10.57,1.25,2.85-.19,5.64-.45,7.94-.12,2.21,6.28,4.57,10.68,5.14,15.31.51,4.16.45,9.63-1.84,12.62-3.8,4.92-9.6,8.31-15.17,12.86-.99-.88-2.28-2.24-3.78-3.3-3.56-2.49-9.5-7.58-10.45-6.79-4.18,3.48-8.2,8.29-9.73,13.38-.97,3.25,2.04,8.1,4.14,11.73,2.07,3.6,5.26,6.55,7.95,9.8-4.66,1.18-9.33,3.33-13.98,3.28-4.45-.03-8.88-2.38-13.34-3.64-4.18-1.19-8.38-2.29-12.57-3.43-.68.94-1.35,1.87-2.03,2.82,4.22,5.65,10.59,10.81,12.06,17.11,1.41,6.02-2.27,13.22-4.23,22.29,9.48-1.51,19.19-3.05,28.91-4.59.61.92,1.2,1.84,1.81,2.75-11.4,7.03-19.17,15.48-14.09,29.5.46,1.28-1.81,3.36-2.34,5.2-1.35,4.82-2.44,9.72-3.63,14.58,1.49-.37,2.98-.74,4.47-1.11,10.87-4.28,21.74-8.57,32.33-12.74,2.98,12.25,5.85,24.05,9.43,38.71,10.19-7.84,18.61-14.32,29.22-22.49-3.25,8.6-5.77,14.26-7.47,20.18-.87,3.07-.25,6.55-.3,9.85,3.7,0,8.02,1.24,10.97-.26,8.3-4.2,16.38-9.06,23.93-14.5,17.76-12.79,33.6-4.51,48.87,4.47,13.55,7.98,10.9,21.94,10.12,34.72-.14,2.28-1.81,4.6-1.59,6.77.78,7.69,2.31,15.3,3.06,22.99.34,3.56-.51,7.24-.81,10.86-.3,3.72-.58,7.44-.86,11.17,3.41-1.93,7.11-3.49,10.16-5.87,4.11-3.23,7.7-7.09,10.88-10.07,4.56,7.39,7.75,12.57,10.94,17.75-.4-16.88-.79-33.77-1.18-50.66,0,0,.18-.24.18-.25-.42-4.21-2.46-9.15-.95-12.49,4.28-9.5,9.48-18.6,14.63-27.69.12,1.28.22,2.57.32,3.84,8.42-8.59,16.83-17.18,25.25-25.77-.52-.62-1.04-1.25-1.56-1.86-.95.4-1.9.81-2.85,1.21l-1.16-1.23c-1.75,1.01-3.51,2.02-5.58,3.23,8.02-13.59,17.12-25.55,26.31-37.42,3.96-5.12,8.09-10.1,12.15-15.15l-6.5,2.8c.74-2.26,1.28-4.68,1.73-7.15,1.58-.22,3.17-.44,4.76-.67,1.33-1.51,2.66-3.03,4-4.53,1.13,3.8,3.57,7.78,3.08,11.36-.63,4.52-3.63,8.72-6.13,14.21h17.94l4.57.44c-.17,1.24-.33,2.46-.49,3.71-17.66-2.46-21.49.28-24.4,17.34-.19,1.11-.84,2.15-1.27,3.23,2.15,1.19,4.29,2.37,6.43,3.54,10.66-11.77,24.87-9.58,38.48-9.79,3.1.3,6.2.61,9.3.91,2.67,2.03,5.35,4.06,5.77,4.38-16.36,1.37-34.41,2.87-52.46,4.38-.39,5.04.71,10.95-1.58,14.87-2.28,3.9-7.7,6.65-12.3,8.2-2.31.77-5.91-2.24-8.91-3.54,2.18-4.25,4.02-8.72,6.63-12.69,2.45-3.74,5.71-6.94,8.62-10.39-18.27,2.91-24.84,18.09-33.04,31.56l.22.1c-12.84,11.82-23.94,24.77-27.71,42.51,2.13,1.8,4.26,3.6,6.39,5.4.46,4.44.93,8.88,1.39,13.32,4.86,9.06,3.17,22.91,18.04,24.63,10.26,1.77,14.94-2.57,14.79-12.96-.04-2.91,1.43-5.84,2.22-8.76,1.38-.22,2.75-.44,4.14-.66,6.69,5.55,13.38,11.11,20.08,16.66,4.57-1.55,9.14-3.11,15.16-5.16.03.27.05.53.07.8.01,0,.02-.01.03-.02,2.35-1.28,4.96-2,7.64-1.79,1.42.1,2.77.39,4.13.7v-.09c8.67,0,18.29.25,27.88-.17,2.6-.12,5.73-1.7,7.55-3.61,11.14-11.75,15.62-12.21,26.08-.28,4.27,4.87,6.97,11.11,10.55,17.18.13.22.25.45.39.67,3.47-.97,6.25-2.48,8.51-4.4,0,0,0-.01.01-.01,7.88-6.63,9.49-18.08,12.52-28.78,1.38-4.89,4.73-9.23,7.19-13.82,0,0,0-.01-.01-.01h.01c-.33,14.44-.67,28.87-1.02,43.3-.05,2.45-.1,4.91-.17,7.36,1.36-2.2,2.71-4.4,4.16-6.75,1.99-3.21,4.16-6.73,6.79-10.99,3.17,2.98,6.77,6.85,10.88,10.07,3.05,2.39,6.74,3.95,10.15,5.87-.28-3.73-.54-7.46-.85-11.17-.29-3.62-1.14-7.3-.81-10.86.74-7.7,2.28-15.31,3.06-22.99.22-2.18-1.46-4.49-1.59-6.77-.79-12.79-3.45-26.74,10.12-34.72,15.26-8.98,31.11-17.26,48.87-4.47,7.55,5.44,15.62,10.3,23.93,14.5,2.95,1.5,7.28.26,10.97.26-.05-3.3.57-6.79-.31-9.85-1.69-5.92-4.21-11.58-7.46-20.18,10.61,8.17,19.04,14.65,29.22,22.49,3.57-14.66,6.45-26.46,9.43-38.71,10.6,4.18,21.47,8.46,32.33,12.74,1.49.37,2.97.74,4.47,1.11-1.19-4.86-2.28-9.76-3.63-14.58-.52-1.84-2.8-3.93-2.33-5.2,5.08-14.02-2.69-22.47-14.09-29.5.61-.91,1.2-1.83,1.8-2.75,9.72,1.54,19.44,3.08,28.92,4.59Zm-512.12-60.73c-.01-.19-.01-.36-.02-.54h.74c-.24.19-.47.36-.72.54Zm134.15,75.3c-.31-1.02-.63-2.04-.94-3.06-2.62,3.14-7.37,6.21-7.48,9.42-.15,4.31-1.24,7.64-3.09,10.28-1.12,1.37-2.37,2.53-3.8,3.33-2.35,1.31-4.72,2.79-7.17,4.17-.15.05-.28.1-.43.16.03.02.05.03.07.04-7.06,3.96-14.67,7.09-23.69,3.25-.93-.4-2.93,1.73-4.44,2.68.85.35,1.71.69,2.55,1.03-.09.26-.19.52-.29.79-.96-.34-1.92-.67-2.88-1.01-9.35-6.89-18.53-14.02-28.18-20.47-1.81-1.21-5.42.24-8.2.47-.55.55-1.1,1.11-1.64,1.68-16.35-15.59-17.47-38.83-2.6-54.98,2.89-3.12,5.81-6.26,9.05-9.01,5.21-4.44,5.33-8.97,1.02-13.97l.05-1.02,1.03-.04c8.39,1.23,16.75,2.61,25.16,3.64,15.36,1.9,33.04-1.29,39.8,18.84.47,1.38,2.45,2.34,2.74,3.71,1.36,6.36,2.36,12.8,3.52,19.2.29,1.62.61,3.24.91,4.86-.42,1.56-.13,2.82.69,3.7.52,2.77,1.04,5.55,1.55,8.32,5.41-3.18,10.83-6.37,16.24-9.55.53-.1,1.08-.22,1.62-.32.59.88,1.18,1.75,1.78,2.63-4.31,3.75-8.64,7.49-12.96,11.24Zm64,108.93c-12.88-3.43-16.21-18.45-26.82-24.63-2.48-1.94-4.96-3.88-7.46-5.82-.76-1.15-1.54-2.31-2.31-3.48.47-.07.74-.35.82-.84-1.31-1.73-2.82-3.38-4.28-5.06,1.48,1.68,2.98,3.33,4.29,5.05,2.48-5.59,4.95-11.19,7.43-16.8,4.36,3.56,8.7,7.12,13.06,10.68,4.46,4.23,9.69,7.92,13.18,12.84,3.12,4.4,6.85,10.45-1.5,14.38,2.07,3.81,4.16,7.61,6.23,11.41-.88.75-1.77,1.51-2.65,2.26Zm6.39-47.41c-2.66-.17-5.35-2.65-7.65-4.53-3.04-2.48-5.71-5.42-9.36-8.97,3.81-7.48,12.32-7.79,20.81-8.18-4.67-1.32-9.34-2.63-15.38-4.34,7.58-6.79,14.64-9.05,22.57-4.59.65.37-1.56,5.83-2.44,8.92,9.27.32,18.44,1.35,20.61,12.57.52,2.72-2.06,8.59-3.7,8.77-8.4.94-16.98.88-25.44.35Zm50.12,15.83c-5.43,8.42-12.12,16.14-19.05,23.43-2.81,2.95-7.57,4.05-11.44,5.99-.68-.81-1.36-1.61-2.04-2.43,4.19-5.73,8.37-11.46,12.56-17.18l6.44-16.73c2.88-4.24,5.59-8.62,8.91-12.48.26-.29,6.7,2.88,6.83,4.68.36,4.9.29,10.86-2.2,14.72Zm54.44,15.05c-15.38-22.25-30.66-44.56-46.32-66.62-1.53-2.16-5.76-2.19-8.18-3.97-3.33-2.45-8.93-5.93-8.66-8.44,1.25-11.55-6.44-12.49-14.19-14.04-3.35.06-6.71.13-10.06.18,2.36-3.12,4.71-6.25,7.62-10.1-6.79-4.83-13.24-9.41-19.7-14-.39-2.35-.79-4.69-1.18-7.05.58-.34,1.15-.67,1.72-1.01,7.58,4.44,15.25,8.94,23.96,14.06,1.89-10.95,3.61-20.98,5.34-31.03,1.26-.07,2.51-.15,3.77-.23.75,4.9,1.23,9.86,2.31,14.68,1.75,7.75,2.03,16.68,6.25,22.84,9.93,14.47,21.84,27.59,32.89,41.31.9,1.12,1.29,2.64,3.16,6.61-5.66-3.28-9.04-5.23-12.41-7.17-.87.91-1.75,1.83-2.62,2.75,5.15,4.2,10.32,8.39,15.46,12.62,1.66,1.36,3.8,2.5,4.8,4.26,5.92,10.49,12.05,20.9,16.99,31.85,1.51,3.34-.53,8.28-.95,12.49Zm66.66-79.64c-.54-.57-1.09-1.12-1.64-1.68-2.79-.23-6.39-1.69-8.2-.47-9.64,6.45-18.84,13.58-28.18,20.47-.96.34-1.93.67-2.88,1.01-.1-.26-.2-.52-.29-.79.85-.34,1.71-.68,2.56-1.03-1.51-.95-3.51-3.08-4.44-2.68-12.3,5.24-22-2.47-31.21-7.61-5.52-3.07-8.17-11.29-12.1-17.2-5.39-4.67-10.78-9.34-16.17-14.01.69-1.03,1.39-2.05,2.08-3.08,5.85,3.45,11.71,6.88,17.55,10.32,1.06-5.62,2.14-11.25,3.16-16.88,1.16-6.41,2.16-12.85,3.52-19.2.29-1.37,2.27-2.32,2.74-3.71,6.76-20.13,24.44-16.94,39.8-18.84,8.41-1.04,16.77-2.42,25.16-3.64l1.02.04.06,1.02c-4.31,4.99-4.2,9.53,1.02,13.97,3.24,2.74,6.16,5.88,9.04,9.01,14.88,16.16,13.76,39.39-2.59,54.98Z"/>
        <path class="cls-1" d="m496.42,723.98c-1.05.35-2.15.57-3.3.57-.5,0-.99.04-1.49.07-2.54.42-4.98.05-7.06-.98.85,9.44,1.69,18.7,2.52,27.92,1.46,3.31,2.93,6.62,5.47,12.36,3.81-5.65,6.13-9.09,8.44-12.54-.55-8.96-1.1-17.93-1.69-27.49-.96.13-1.93.19-2.9.08Z"/>
        <path class="cls-1" d="m756.18,144.61c0,.06.02.13.03.19.03-.02.06-.03.09-.04,0,0-.12-.15-.12-.15Z"/>
        <path class="cls-1" d="m548.19,777.82c-1.23-.03-2.45-.06-3.68-.09l.38-2.96.69-1.49c1.52-3.23,3.03-6.45,4.53-9.68,2.68-5.7,5.42-11.54,8.14-17.37.14,10.44-2.92,20.87-8.46,31.28-.53.09-1.07.21-1.6.31Z"/>
        <path class="cls-1" d="m571.12,729.71c-.14-.22-.26-.45-.39-.67,2.67-1.77,5.64-3.02,8.9-3.73-2.26,1.92-5.05,3.42-8.51,4.4Z"/>
        <path class="cls-1" d="m602.34,726.59c-1.45,2.36-2.8,4.55-4.16,6.75.06-2.45.12-4.91.17-7.36l3.99.61Z"/>
        <path class="cls-1" d="m590.35,744.8c-1.59,2.37-3.17,4.72-4.76,7.08,3.32,12.17,1.25,23.15-2.47,33.78-3.11,8.85-7.36,17.46-10.61,26.27-1.65,4.53-3.19,9.1-4.77,13.65-.05.16-.12.32-.17.48.01,0,.24.34.24.34-3.69,4.38-7.37,8.77-10.92,13h-.01c-.84,1.02-1.69,2.01-2.52,3.01-3.12,3.74-6.14,7.32-8.93,10.65.46-3.55.91-7.12,1.37-10.71.13-.97.25-1.96.38-2.93.58-4.46,1.15-8.95,1.73-13.46,1.7-13.27,3.42-26.71,5.14-40.19.35-2.68.69-5.37,1.04-8.05,4.99-10.67,10.03-21.33,14.96-32.02,4.19-9.08,11.49-11.69,20.82-10.27-.32.76-.66,1.52-.99,2.27-.01.85-.02,1.7-.03,2.53.18,1.53.36,3.05.52,4.57Z"/>
        <path class="cls-1" d="m516.7,729.02c-2.05-3-4.4-5.8-6.61-8.69-.91,1.56-2.05,3.08-3.11,4.62,0,.66-.06,1.32-.2,1.97-.4,1.74-1.39,3.12-2.68,4.15,0,.04-.02.08-.03.12-1,7.55-.4,15.31-.47,22.99-.01,1.22-.02,2.44-.03,3.66,1.43.39,2.85.78,4.28,1.17,5.65-3.97,6.67-.47,6.76,4.26.09,4.87.02,9.74.02,16.05,5.64-5.32,9.94-9.37,14.23-13.42-.06-6.27-.13-12.55-.19-18.82-3.98-6.03-7.89-12.11-11.96-18.07Z"/>
        <path class="cls-1" d="m528.85,765.92l.09-.09s-.06.06-.09.09h0Z"/>
        <path class="cls-1" d="m558.25,746.23c.14,10.44-2.92,20.87-8.46,31.28-.53.09-1.07.21-1.6.31-1.23-.03-2.45-.06-3.68-.09-.58-.01-1.15-.03-1.74-.04-1.01-2.08-2-4.16-3-6.24-2.84-8.1-5.68-16.21-8.51-24.31-4.47-11.58,3.34-19.74,8.61-28.24.96-1.55,6.76-.1,10.32-.04,5.41,9.14,7.96,18.27,8.06,27.38Z"/>
        <path class="cls-1" d="m448.84,768.09c-1.51-3.07-3-6.13-4.5-9.18.03-.32.05-.64.07-.96.15.03.29.06.44.1l5.66,1.48,4.14,13.6s.09.81.24,2.1c-1.3.01-2.6.02-3.72.16-.77-2.44-1.56-4.87-2.34-7.3Z"/>
        <path class="cls-1" d="m456.89,854.47c-.45.3-.9.62-1.35.92-2.68-4.65-5.48-9.27-8.24-13.87-.56-.93-1.11-1.85-1.67-2.79-3.33-5.58-6.61-11.19-9.6-16.93-.97-1.85-1.92-3.73-2.82-5.61-5.22-10.9-9.36-22.31-13.64-33.66-1.21-3.25-2.44-6.48-3.71-9.71l1.1.25c-.54-3.72-1.21-7.42-1.8-11.13-.56-3.54-1.06-7.08-1.31-10.64-1.16-16.18-.14-16.95,16.33-15.09,2.93,7.12,5.87,14.24,8.82,21.35.19.45.38.9.57,1.35.38,2.99.75,6,1.13,8.99.51.05,1.01.15,1.5.27.72,2.37,1.43,4.73,2.16,7.1.3,2.65.62,5.3.92,7.95.34,2.84.66,5.68.99,8.51.29,1.55.6,3.11.91,4.67.28,2.28.55,4.57.84,6.86.46,2.36.93,4.72,1.39,7.09.46,2.44.91,4.88,1.36,7.32.31,1.85.62,3.72.92,5.57.86,5.16,1.72,10.32,2.58,15.49.17.97.32,1.95.48,2.91.71,4.28,1.42,8.55,2.14,12.83Z"/>
        <path class="cls-1" d="m485.55,754.21c-.16,4.87-.32,9.74-.48,14.61-1.05.03-2.09.06-3.13.09-3.87-4.32-7.75-8.66-11.62-12.98-2.98,6.06-5.38,12.57-9.29,17.97-.91,1.27-3.51,1.31-6.14,1.34-1.3.01-2.6.02-3.72.16-.77-2.44-1.56-4.87-2.34-7.3-1.51-3.07-3-6.13-4.5-9.18.03-.32.05-.64.07-.96.84-10.45.89-21.06,2.93-31.27,2.26-11.26,10.28-13.02,19.28-5.35,1.19,3.06,2.38,6.12,3.57,9.17.72.82,1.44,1.63,2.17,2.46.18.67.35,1.34.49,2.02,10.08,2.54,11.88,10.57,12.7,19.22Z"/>
        <path class="cls-1" d="m248.75,146.94s0,.01,0,.02c0,0,.01,0,.02.01l-.03-.03Z"/>
        <path class="cls-1" d="m244.17,144.76s.06.03.09.04c0-.07.02-.13.03-.19,0,0-.12.15-.12.15Z"/>
      </g>
      <path class="cls-1" d="m765.15,227.38c-1.41.93-2.81,1.85-4.21,2.78l-.22,4.93c1,2.06,1.33,4.54.51,7.23-.38,1.27-.71,2.57-1,3.88l-.07,1.62c-.27,2.85-.41,5.73-.59,8.61,11.65,20.27,9,48.94,8.13,71.35-1.45,37.44-8.49,74.14-16.69,110.36-1.16,5.12-5.29,7.27-9.18,7.04-.05.65-.09,1.31-.14,1.96-.88,11.31-1.93,22.58-3.4,33.77,3.65-8.17,9.21-16.01,14.21-25.02.04,8.04-.03,12.86.12,17.67.17,5.2.56,10.39.85,15.59.55-.71,1.1-1.43,1.65-2.14,2.7-5.23,5.41-10.47,8.11-15.71-.13-1.35-.25-2.69-.38-4.04.51-1.89,1.02-3.78,1.52-5.68.58-3.3,1.15-6.59,1.73-9.88,1.18-3.11,2.37-6.22,3.56-9.33-.19-3.73-.38-7.46-.57-11.19.32-6.15.64-12.3.96-18.45.11-2.31.22-4.63.33-6.94.38-3.45.75-6.91,1.13-10.37.77-6.77,1.54-13.54,2.32-20.31.3-5.09.59-10.17.88-15.26l-.33-7.57c.19-3.49.38-6.98.57-10.47.32-15.1.65-30.2.98-45.3-.13-4.33-.25-8.67-.38-13.01-.11-4.89-.21-9.78-.32-14.66-3.36-13.82-6.73-27.65-10.09-41.47Z"/>
      <path class="cls-1" d="m235.59,227.38c1.41.93,2.81,1.85,4.21,2.78l.22,4.93c-1,2.06-1.33,4.54-.51,7.23.38,1.27.71,2.57,1,3.88l.07,1.62c.27,2.85.41,5.73.59,8.61-11.65,20.27-9,48.94-8.13,71.35,1.45,37.44,8.49,74.14,16.69,110.36,1.16,5.12,5.29,7.27,9.18,7.04.05.65.09,1.31.14,1.96.88,11.31,1.93,22.58,3.4,33.77-3.65-8.17-9.21-16.01-14.21-25.02-.04,8.04.03,12.86-.12,17.67-.17,5.2-.56,10.39-.85,15.59-.55-.71-1.1-1.43-1.65-2.14-2.7-5.23-5.41-10.47-8.11-15.71.13-1.35.25-2.69.38-4.04-.51-1.89-1.02-3.78-1.52-5.68-.58-3.3-1.15-6.59-1.73-9.88-1.18-3.11-2.37-6.22-3.56-9.33.19-3.73.38-7.46.57-11.19-.32-6.15-.64-12.3-.96-18.45-.11-2.31-.22-4.63-.33-6.94-.38-3.45-.75-6.91-1.13-10.37-.77-6.77-1.54-13.54-2.32-20.31-.3-5.09-.59-10.17-.88-15.26l.33-7.57c-.19-3.49-.38-6.98-.57-10.47-.32-15.1-.65-30.2-.98-45.3.13-4.33.25-8.67.38-13.01.11-4.89.21-9.78.32-14.66,3.36-13.82,6.73-27.65,10.09-41.47Z"/>
    </g>
    <path class="cls-1" d="m433.48,838.73h-23.96c3.37-4.3,6.29-8.04,9.21-11.78-4.11,3.18-6.83,8.08-10.99,10.35-4,2.17-9.49,1.59-14.32,2.22-.12-.43-.24-.86-.36-1.29,6.86-3.23,12.77-7.58,15.94-14.54,1.32-2.88,2.99-3.32,5.71-3.12,3.09.22,6.18.4,9.28.57-.06-.14-.14-.28-.2-.42-4.88-10.17-8.83-20.71-12.65-30.91-.9-2.4-1.81-4.84-2.74-7.28h-12.19s.07-.07.1-.1c-.15.01-.29.03-.45.03-.44-.06-.88-.12-1.32-.18-.04-.01-.07-.03-.12-.04-.65-.01-1.29-.04-1.93-.1-.19,0-.39-.01-.58-.01-3.62-.02-6.77-.71-10.17-1.97-2-.07-4.01-.08-6,.03-.22.01-.43.01-.64,0h-.03c-52.95-.18-105.9-.35-158.86-.52,1.33.79,2.62,1.28,2.98,2.15,1.94,4.66.98,16.21-1.57,18.63-.04-.36-.07-.71-.1-1.08.04-.06.07-.14.12-.21-.04.02-.08.03-.14.05-.62-6.46-1.2-12.59-1.87-19.54-1.99-.01-3.98-.02-5.97-.02,0-.02.01-.04.01-.05-.52-.03-1.02-.13-1.44-.27-1.29-.01-2.57-.01-3.84-.01-.44.13-.92.2-1.46.2-.24,0-.47-.02-.69-.05-.16.02-.3.03-.46.03h-.03c-.32.07-.68.12-1.06.12-.17,0-.32-.02-.48-.04-.08,0-.17.01-.25.01-.07,0-.15-.01-.21-.01v.05c-1.29-.01-2.58-.01-3.86-.02.47,7.42.91,14.17,1.41,21.73-1.48-1.65-3.05-2.81-3.77-4.36-2.31-4.98-2.76-9.92,2.25-13.97-1.24-.49-1.9-.73-2.53-.99.89-.9,1.78-1.77,2.41-2.41h-2.49c-2.14,2.16-3.59,4.97-3.66,8.08-.09,3.96,1.28,8.05,2.58,11.89.46,1.36,2.67,3.08,4.04,3.04,1.25-.03,2.27.17,3.14.53.58-.08,1.19-.07,1.85.06,1.84.38,3.66.79,5.48,1.21.06,0,.13-.01.19-.01.07,0,.14.01.21.01h-.01c.6-.12,1.18-.23,1.77-.39,1.57-.42,3.12-.92,4.64-1.47.01.01.01.02.01.03.09-.05.19-.09.27-.15.15-.08.28-.15.44-.21.08-.04.17-.07.25-.1.19-.06.39-.12.59-.16.28-.06.57-.1.87-.12.23-.12.44-.25.67-.36,1.08-.48,2.14-.59,3.1-.4,9.64-.95,18.75-2.38,27.82-2.21,29.78.57,59.55,1.85,89.31,2.98,1.92.07,3.8,1.24,5.76,1.91-.03.05-.06.09-.08.14.3.08.61.18.91.29,2.19-.45,4.39-.9,6.58-1.35.96-.2,1.83-.15,2.6.1,3.32.13,6.97.96,10.74,1.11-.12.07-.23.16-.33.23.52-.06,1.05-.02,1.57.15.5.13.94.36,1.35.65.08-.07.17-.14.25-.22,4.27,4.69,8.12,8.92,11.62,12.77,3.46-2.66,6.71-6.43,10.83-8,3.6-1.37,8.56-1.41,12.2-.07,7.36,2.72,8.62,9.99,3.43,15.93-4.89,5.58-10.9,9.4-18.29,10.95-1.81.38-3.51,1.33-5.25,2.01.03.44.06.89.09,1.33,1.98.28,3.94.75,5.92.8,16.18.31,32.36.88,48.52.95-.55-.93-1.11-1.87-1.65-2.82Zm-223.29-35.86c-.95.5-2.07,1.02-3.26,1.48-.12-.16-.23-.3-.37-.43-3.42-3.5-3.79-2.98-4.21-6.87-.54-5.25-1.44-10.45-1.97-15.7,1.63.21,3.28.43,4.91.64.58-.04,1.16-.06,1.75-.06.2-.05.42-.07.67-.05.16-.04.33-.06.52-.05.15-.03.29-.04.44-.05.39.77.63,1.57.66,2.29.15,3.71.83,7.42,1.6,11.07.43,2.06,1.3,4.03,2.05,6.03-.92.67-1.91,1.24-2.81,1.71Zm4.15-5.87c-2.94-5.08-3.94-10.32-1.8-15.87.52-.02,1.06-.05,1.59-.07.55,5.28,1.1,10.55,1.65,15.83-.48.03-.96.07-1.45.12Zm7.09,2.37v-18.66c3.39-.96,4.89.48,5.13,3.76.21,2.75.28,5.57.92,8.25,1.15,4.92-.64,7.04-6.05,6.65Zm8.28-1.4c-.65-6.05-1.24-11.48-1.86-17.28,2.36.13,4.05.22,5.98.34.43,5.57.81,10.6,1.21,15.89-1.8.36-3.19.63-5.33,1.05Zm7.78-5.2c-.27-.03-.52-.06-.8-.09-.45-3.79-.91-7.57-1.39-11.57h4.95c-1.04,4.37-1.91,8.02-2.76,11.66Zm18.4,3.99c-2.37,0-4.65-.01-6.93,0-6.39.01-9.14-3.11-8.29-9.6.25-2.04.83-4.04,1.25-6h13.98v15.6Zm2.58-.15c.75-5.19,1.44-9.98,2.14-14.77.39.05.76.12,1.15.16.88,4.84,1.76,9.65,2.66,14.62h-5.95Zm10.35.16c-.98-.01-2.63-.99-2.82-1.81-1.07-4.37-1.77-8.83-2.57-13.06h34.27c-1.07,5.6-2.01,10.55-2.86,14.96-9.02,0-17.53.05-26.03-.09Zm27.34,1.12c.96-5.04,1.69-9.34,2.67-13.59.2-.86,1.25-1.81,2.12-2.1.43-.16,1.68.92,1.98,1.68,1.87,4.64,3.57,9.34,5.6,14.73-4.41-.25-7.8-.45-12.37-.71Zm15.86.76c-.9-.02-2.25-.88-2.55-1.66-1.82-4.82-3.4-9.73-5.12-14.77,4.6,0,8.86.06,13.11-.02,2.77-.05,4.04,1.16,4.62,3.92.86,4.14,2.22,8.16,3.48,12.63-4.72,0-9.13.09-13.53-.08Zm24.89.64c1.32-3.46,2.61-6.88,3.92-10.3.33,9.98-.07,10.94-3.92,10.3Zm-1.72.49c-.44-.16-.9-.31-1.34-.47.5-1.21,1.01-2.43,1.44-3.47-1.99,1.27-4.3,3.73-5.48,3.28-1.78-.69-3.17-3.28-3.97-5.34-1.3-3.39-1.99-7.01-2.92-10.48h18c-2.07,5.95-3.9,11.21-5.74,16.48Zm8.28,2c-.63-.91-1.85-1.9-1.76-2.72.59-5.29,1.47-10.55,2.24-15.82h1.4c.29,5.43.68,10.86.73,16.29.01.74-1.7,1.5-2.62,2.25Zm4.21-1.52v-16.19h16.24c-.96,6.18-1.84,11.8-2.73,17.47-4.66-.44-8.84-.84-13.51-1.28Zm23.47,5.42c-2.87-1.72-5.2-3.11-8.14-4.86.82-5.53,1.65-11.12,2.52-16.92,2.24.13,4.09.23,5.61.31v21.47Zm5.29,5.44c-1.55-.81-2.46-1.74-2.48-2.7-.24-7.38-.39-14.77-.3-22.16.01-.83,1.68-1.64,2.79-2.66v27.52Zm155.79-25.5c-11.57-.19-23.13-.64-34.65-1.57-4.91-.08-9.81-.18-14.72-.28-1.79-.03-3.58-.03-5.61-.02v-.24h-21.36c.28,2.46.56,4.88.76,6.63.22,1.18.9,4.62.9,4.62l.84,6.86,1.34,6.82,1.4,7.54c.33,2,.74,4.49,1.21,7.28h4.6c.21.05.42.1.61.19,9.75.73,19.39,1.48,29.14,2.21-.32,1.46-.51,2.32-.7,3.18,6-6.04,12.8-1.39,19.63-2.61-2.05,3.43-3.6,6.01-5.14,8.59,1.49-.52,2.37-1.43,2.94-2.51,2.47-4.61,5.96-6.32,11.48-6.22,4.48.07,8.95.07,13.43.03l5.17-40.37c-3.76-.02-7.52-.05-11.28-.12Zm274.87,5.93c-40.17-1.01-80.34-1.99-120.5-2.97-15.73-.4-31.44-.71-47.15-1.26-.01-.02-.02-.04-.03-.07-1.43-.13-2.86-.27-4.3-.46-8.92-1.11-17.85-.12-26.83-.63-1.24-.06-2.41-.22-3.54-.44-.01-.01-.02-.02-.03-.02-.09,0-.19.01-.29.01-.28,0-.54-.02-.8-.06-.27.04-.54.06-.85.06s-.61-.03-.89-.08c-.29.05-.61.08-.93.08-.25,0-.49-.02-.72-.05h-6.08c-1.99,6.35-4.56,12.37-6.99,18.1-1.74,4.06-3.37,7.91-4.8,11.78-1.09,2.95-2.15,6.01-3.16,8.99l.18.27c.59-.08,1.21-.13,1.9-.14,7.81-.07,15.64-.16,23.42-.68,13.22-.9,26.41-2.16,38.83-3.2.34-.21.7-.39,1.1-.51h16.24c.13.06.25.13.38.2,4.81-.44,9.47-2.6,14.29-.38.84-.59,2.49-1.74,4.95-3.46-.4,2.84-.6,4.23-.98,7.01,3.58-7.11,5.82-8.09,15.38-7.62-1.59,2-3.1,3.9-4.6,5.79,9.08-7.76,11.08-8.57,25.57-9.46.6,1.15,1.23,2.38,2.31,4.45v-5.24c3.26-.66,6.32-1.17,9.35-1.9,16.78-4,33.71-7.48,50.22-12.33,6.38-1.87,12.32-4.18,19.33-2.36-6.34,2.6-12.53,5.59-19.02,7.7-31.62,10.36-64.01,17.58-96.69,23.63-6.63,1.23-13.27,2.51-19.96,3.19-.31.03-.64-.02-.96-.14-.38.15-.8.23-1.26.27-.68.42-1.52.66-2.51.66l.22.22c-.51-.01-1.04-.03-1.56-.04-1.38.25-2.78.43-4.2.57-.17.06-.35.09-.52.14-.11.02-.21.05-.31.06-.25.04-.5.06-.76.06-.34.1-.68.18-1.06.22-.18.01-.35.04-.52.04-.08,0-.17-.01-.25-.01.02.04.04.08.05.13-.72.18-1.46.24-2.19.21-.01.06-.02.13-.03.2-24.85,3.79-49.68,6.18-74.7,7.01l-2.73,3.26c4.16-.07,8.31-.2,12.47-.41,20.03-1.01,40.01-3.25,60-5.08,3.88-.83,7.79-1.62,11.71-2.26,4.76-.45,9.53-.9,14.28-1.35.84-.01,1.68,0,2.5.02,48.74-8.59,96.64-19.11,141.46-41.22-1.14-.18-2.28-.47-3.42-.5Zm-279.49,47.41c1.83-2.27,3.29-4.09,4.74-5.9-.28-.48-.55-.94-.84-1.4-3.71,8.29-10.58,8.13-17.58,7.95-8.22-.23-16.46-.47-24.67-.17-2.46.09-4.73-.12-6.87-.68-.19.02-.37.04-.55.04h-.5c-.17,0-.34,0-.49-.02-.12.12-.24.21-.38.29-1.23.16-2.66.15-4.37.05-.12,0-.24.01-.36.01-.44-.06-.88-.13-1.32-.18-.12-.03-.22-.08-.33-.13-.04,0-.07.01-.12.01-.42,0-.81-.05-1.16-.13-1.05,0-2.09.02-3.13.04-1.59-.04-3.17-.05-4.76-.04.16.97.32,1.94.48,2.89.61-.07,1.25-.15,1.92-.24.77-.1,1.54-.18,2.29-.22.75.04,1.52.12,2.29.22,3.71.5,6.49.71,8.65.64v.06s-.03.06-.04.09c.37-.08.74-.13,1.16-.13.72,0,1.35.14,1.92.37.19-.02.4-.03.61-.03.05,0,.12.01.17.01-.01-.02-.01-.03-.02-.04h.23c2.9-.91,6.82-.37,9.57-.36,6.94.02,13.88.01,20.84.01.58,0,1.11.08,1.58.23,3.54-.2,7.1-.32,10.65-.36.67-.01,1.26.09,1.79.28,2.43.01,4.85.04,7.28.07l.38-2.97c-3.02-.07-6.03-.17-9.05-.29Z"/>
  </g>
  <g>
    <path class="cls-1" d="m605.16,547.63c-2.26,1.44-4.04,3.38-6.17,5.04.21-.42.38-.87.65-1.24,2.29-3.23,4.87-6.21,7.87-8.78,1.35-1.15,2.99-1.98,4.56-2.84,2.44-1.32,4.89-2.67,7.44-3.76,1.99-.85,4.1-1.56,6.23-1.92,2.3-.39,4.67-.45,7.02,0,2.18.43,4.38.74,6.56,1.18,2.05.42,4.08.93,6.12,1.42.23.05.42.25.75.45-.58.3-1.04.53-1.74.88.76.47,1.31.83,1.89,1.16,4.19,2.4,7.61,5.69,10.49,9.51,1.49,1.98,2.8,4.1,4.02,6.25.55.97.61,2.21.98,3.3,2.01,5.99,2.35,12.07,1.06,18.24-.52,2.47-1.08,4.94-1.82,7.34-.82,2.66-1.98,5.21-3.53,7.53-1.14,1.7-2.33,3.39-3.64,4.96-2.87,3.47-6.46,6.07-10.2,8.55-3.63,2.41-7.58,3.98-11.73,5.06-4.32,1.13-8.75,1.63-13.24,1.35-3.49-.22-6.9-.95-10.11-2.26-3.71-1.5-7.14-3.6-9.76-6.71-2.85-3.37-4.87-7.2-6.16-11.45-1.27-4.22-1.49-8.51-1.25-12.84.25-4.51,1.2-8.91,2.77-13.12,1.36-3.65,3.25-7.07,5.42-10.33,1.43-2.15,3.08-4.11,4.76-6.05.27-.31.5-.64.75-.96Zm20.46,57.8c3.96-.02,7.84-.53,11.63-1.7,2.32-.71,4.38-1.93,6.48-3.07,4.09-2.21,7.53-5.2,10.2-9.02,3.64-5.21,5.82-10.93,5.88-17.36.02-2.44.05-4.91-.59-7.27-.71-2.64-1.47-5.28-2.86-7.67-.99-1.7-1.87-3.46-2.9-5.14-1.63-2.66-3.49-5.1-6.66-6.1-.28-.09-.54-.27-.81-.39-2.26-1.03-4.6-1.82-7-2.47-2.93-.79-5.91-.86-8.91-.89-2.73-.02-5.37.43-7.99,1.05-.9.21-1.8.59-2.58,1.08-4.07,2.51-7.7,5.54-10.76,9.24-1.84,2.22-3.46,4.61-4.72,7.17-2.16,4.38-3.96,8.9-4.59,13.81-.43,3.36-.74,6.71-.31,10.1.65,5.04,3.12,9.12,6.82,12.44,2.75,2.47,6.15,3.86,9.66,4.9,3.26.96,6.63,1.29,10.03,1.28Z"/>
    <path class="cls-1" d="m612.59,579.53c.06-5.88.99-10.67,3.08-15.2.52-1.13,1.03-2.27,1.72-3.3,1.17-1.74,2.81-2.98,4.72-3.84,4.14-1.87,8.49-2.7,13.01-2.28,2.36.22,4.52,1.24,6.61,2.35,2.25,1.2,4,2.86,5.25,5.12,1.63,2.97,3.29,5.91,4.27,9.18.88,2.95.86,5.89.02,8.86-.67,2.35-1.19,4.73-2.36,6.91-1.47,2.74-3.41,4.96-6.16,6.54-2.4,1.37-4.81,2.61-7.46,3.39-2.56.75-5.12.96-7.73.28-2.7-.71-5.39-1.39-7.78-2.92-1.55-.99-2.76-2.31-3.71-3.86-.45-.73-.82-1.5-1.22-2.26-1.64-3.09-2.47-6.36-2.25-8.97Zm20.33,5.3c1.1-.3,2.25-.49,3.3-.93,2.81-1.18,4.34-3.49,5.2-6.31,1.11-3.61-.37-7.52-3.63-9.6-3.15-2.01-7.16-1.66-9.98.87-1.51,1.36-2.42,3.08-2.98,5-1.53,5.29,2.55,10.76,8.09,10.97Z"/>
  </g>
  <g>
    <path class="cls-1" d="m395.42,547.63c2.26,1.44,4.04,3.38,6.17,5.04-.21-.42-.38-.87-.65-1.24-2.29-3.23-4.87-6.21-7.87-8.78-1.35-1.15-2.99-1.98-4.56-2.84-2.44-1.32-4.89-2.67-7.44-3.76-1.99-.85-4.1-1.56-6.23-1.92-2.3-.39-4.67-.45-7.02,0-2.18.43-4.38.74-6.56,1.18-2.05.42-4.08.93-6.12,1.42-.23.05-.42.25-.75.45.58.3,1.04.53,1.74.88-.76.47-1.31.83-1.89,1.16-4.19,2.4-7.61,5.69-10.49,9.51-1.49,1.98-2.8,4.1-4.02,6.25-.55.97-.61,2.21-.98,3.3-2.01,5.99-2.35,12.07-1.06,18.24.52,2.47,1.08,4.94,1.82,7.34.82,2.66,1.98,5.21,3.53,7.53,1.14,1.7,2.33,3.39,3.64,4.96,2.87,3.47,6.46,6.07,10.2,8.55,3.63,2.41,7.58,3.98,11.73,5.06,4.32,1.13,8.75,1.63,13.24,1.35,3.49-.22,6.9-.95,10.11-2.26,3.71-1.5,7.14-3.6,9.76-6.71,2.85-3.37,4.87-7.2,6.16-11.45,1.27-4.22,1.49-8.51,1.25-12.84-.25-4.51-1.2-8.91-2.77-13.12-1.36-3.65-3.25-7.07-5.42-10.33-1.43-2.15-3.08-4.11-4.76-6.05-.27-.31-.5-.64-.75-.96Zm-20.46,57.8c-3.96-.02-7.84-.53-11.63-1.7-2.32-.71-4.38-1.93-6.48-3.07-4.09-2.21-7.53-5.2-10.2-9.02-3.64-5.21-5.82-10.93-5.88-17.36-.02-2.44-.05-4.91.59-7.27.71-2.64,1.47-5.28,2.86-7.67.99-1.7,1.87-3.46,2.9-5.14,1.63-2.66,3.49-5.1,6.66-6.1.28-.09.54-.27.81-.39,2.26-1.03,4.6-1.82,7-2.47,2.93-.79,5.91-.86,8.91-.89,2.73-.02,5.37.43,7.99,1.05.9.21,1.8.59,2.58,1.08,4.07,2.51,7.7,5.54,10.76,9.24,1.84,2.22,3.46,4.61,4.72,7.17,2.16,4.38,3.96,8.9,4.59,13.81.43,3.36.74,6.71.31,10.1-.65,5.04-3.12,9.12-6.82,12.44-2.75,2.47-6.15,3.86-9.66,4.9-3.26.96-6.63,1.29-10.03,1.28Z"/>
    <path class="cls-1" d="m387.99,579.53c-.06-5.88-.99-10.67-3.08-15.2-.52-1.13-1.03-2.27-1.72-3.3-1.17-1.74-2.81-2.98-4.72-3.84-4.14-1.87-8.49-2.7-13.01-2.28-2.36.22-4.52,1.24-6.61,2.35-2.25,1.2-4,2.86-5.25,5.12-1.63,2.97-3.29,5.91-4.27,9.18-.88,2.95-.86,5.89-.02,8.86.67,2.35,1.19,4.73,2.36,6.91,1.47,2.74,3.41,4.96,6.16,6.54,2.4,1.37,4.81,2.61,7.46,3.39,2.56.75,5.12.96,7.73.28,2.7-.71,5.39-1.39,7.78-2.92,1.55-.99,2.76-2.31,3.71-3.86.45-.73.82-1.5,1.22-2.26,1.64-3.09,2.47-6.36,2.25-8.97Zm-20.33,5.3c-1.1-.3-2.25-.49-3.3-.93-2.81-1.18-4.34-3.49-5.2-6.31-1.11-3.61.37-7.52,3.63-9.6,3.15-2.01,7.16-1.66,9.98.87,1.51,1.36,2.42,3.08,2.98,5,1.53,5.29-2.55,10.76-8.09,10.97Z"/>
  </g>
</svg>