<?xml version="1.0" encoding="UTF-8"?>
<svg id="Layer_1" data-name="Layer 1" xmlns="http://www.w3.org/2000/svg" viewBox="0 0 1000 1000">
  <defs>
    <style>
      .cls-1 {
        fill: #eae2d3;
      }
    </style>
  </defs>
  <g>
    <g>
      <path class="cls-1" d="m369.06,557.14l-18.03-43.86h-22.13v43.85h-36.77v-114.39h88.31c7.39,0,14.48,2.93,19.71,8.16,5.23,5.23,8.16,12.32,8.16,19.71v14.8c0,11.8-7.43,22.32-18.55,26.27-.31.11-.63.21-.95.31l20.06,45.15h-39.8Zm-40.17-70.55h36.14s6.5,0,6.5-8.58-6.5-8.58-6.5-8.58h-36.14v17.16Z"/>
      <path class="cls-1" d="m458.18,469.43v17.16h74.69v26.69h-74.69v17.16h81.6v26.69h-118.37v-114.39h118.37v26.69h-81.6Z"/>
      <path class="cls-1" d="m677.28,521.39v7.88c0,15.02-11.91,27.34-26.93,27.85v.02h-96.72v-114.39h88.31c2.85,0,5.69.43,8.41,1.29,11.59,3.67,19.46,14.42,19.46,26.58v7.13c0,7.04-2.66,13.82-7.45,18.96,9.18,4.81,14.93,14.32,14.92,24.68Zm-86.88-51.96v17.16h36.14s6.5,0,6.5-8.58-6.5-8.58-6.5-8.58h-36.14Zm50.1,52.43c0-8.58-6.5-8.58-6.5-8.58h-43.61v17.16h43.61s6.49-.02,6.49-8.58Z"/>
      <path class="cls-1" d="m726.22,469.43v17.16h74.69v26.69h-74.69v17.16h81.6v26.69h-118.37v-114.39h118.37v26.69h-81.6Z"/>
      <path class="cls-1" d="m920.5,557.14h-98.83v-114.39h36.77v87.7h62.05v26.69Z"/>
    </g>
    <g>
      <path class="cls-1" d="m144.59,442.73v22.92h-17.69v91.61h-29.78v-91.61h-17.62v-22.92h65.09Z"/>
      <path class="cls-1" d="m219.86,442.73v114.54h-29.78v-48.11h-8.91v48.11h-29.78v-114.54h29.78v40.96h8.91v-40.96h29.78Z"/>
      <path class="cls-1" d="m231.81,442.73h49.66v22.92h-19.88v21.72h18.61v21.79h-18.61v25.19h21.86v22.92h-51.64v-114.54Z"/>
    </g>
  </g>
  <g>
    <path class="cls-1" d="m884.63,442.74h15.19v3.08h-6.05v13.77h-3.09v-13.77h-6.05v-3.08Z"/>
    <path class="cls-1" d="m901.99,442.73h3.08l6.11,11.35h.12l6.11-11.35h3.08v16.85h-3.08v-10.31h-.06l-4.87,9.07h-2.47l-4.87-9.07h-.06v10.31h-3.08v-16.85Z"/>
  </g>
</svg>